<?xml version="1.0" encoding="utf-8"?>
<!-- Generator: Adobe Illustrator 19.1.1, SVG Export Plug-In . SVG Version: 6.00 Build 0)  -->
<svg version="1.1" id="Layer_1" xmlns="http://www.w3.org/2000/svg" xmlns:xlink="http://www.w3.org/1999/xlink" x="0px" y="0px"
	 viewBox="0 0 50 50" style="enable-background:new 0 0 50 50;" xml:space="preserve">
<style type="text/css">
	.st0{fill:#7CCFDA;}
</style>
<g>
	<polygon class="st0" points="13.4,43 13.4,42.9 13.3,42.9 13.2,42.8 13.1,42.8 13.3,43 13.2,43 13.3,43.1 13.3,43.1 13.6,43.2 
		13.4,43.1 13.7,43 13.7,42.9 13.5,42.9 	"/>
	<polygon class="st0" points="13.3,41 13.3,40.9 13.3,40.8 13.1,40.8 	"/>
	<polygon class="st0" points="12.8,39.3 12.9,39.4 13.1,39.3 12.8,39.2 	"/>
	<polygon class="st0" points="13.6,40.7 13.8,40.8 13.9,40.6 13.8,40.6 	"/>
	<polygon class="st0" points="12.7,38.2 12.7,39.4 12.9,38.4 	"/>
	<polygon class="st0" points="13,43 13.1,42.9 12.8,42.8 	"/>
	<polygon class="st0" points="14.6,39.6 14.6,39.6 14.5,39.6 	"/>
	<polygon class="st0" points="14.1,41 14.4,40.4 14.3,40.6 	"/>
	<polygon class="st0" points="14.8,41.3 15.1,41.2 14.8,41.3 	"/>
	<polygon class="st0" points="14.8,40.8 14.6,40.6 14.5,40.8 15.1,40.9 	"/>
	<polygon class="st0" points="14.5,41.4 14.5,41.5 14.7,41.5 14.7,41.4 14.6,41.3 	"/>
	<polygon class="st0" points="14.7,39.8 14.7,39.8 14.6,39.8 14.7,39.9 14.9,39.8 14.8,39.8 14.9,39.8 	"/>
	<polygon class="st0" points="14.5,34.9 14.5,35 14.6,35 	"/>
	<polygon class="st0" points="13.5,40.2 13.5,40.4 13.9,40.1 13.7,40 13.5,39.7 13.5,39.8 13.7,40 13.5,39.9 13.4,40 13.5,40.1 
		13.4,40.1 	"/>
	<polygon class="st0" points="14.5,35.6 14.5,36 14.7,36 14.6,35.9 14.7,35.4 14.5,35.4 14.6,35.6 	"/>
	<polygon class="st0" points="19.8,43.7 19.8,43.6 19.8,43.7 	"/>
	<polygon class="st0" points="15.1,34.1 15.1,34 14.9,34.3 14.9,34.4 	"/>
	<polygon class="st0" points="14.5,35.2 14.4,35.5 14.5,35.4 	"/>
	<polygon class="st0" points="13.2,38.2 13.4,38.2 13.5,38.2 13.4,38.2 13.5,38 13.1,38 13.2,38.2 	"/>
	<polygon class="st0" points="13.9,38.4 13.9,38.4 13.8,38.4 13.7,38.2 13.7,38.3 13.8,38.4 13.3,38.4 13,38.5 13.7,38.6 	"/>
	<polygon class="st0" points="13.5,37.7 13.5,37.8 13.6,37.7 	"/>
	<polygon class="st0" points="14.3,36.4 14.4,36.3 14.2,35.9 13.9,36.4 14,36.4 	"/>
	<polygon class="st0" points="14.8,35.4 15,35.6 15.1,35.5 15.3,35.7 15.1,35.2 14.9,35.4 14.8,35.4 	"/>
	<polygon class="st0" points="18.7,42.6 18.5,42.7 18.7,42.7 18.8,42.8 19,42.9 19,42.8 18.7,42.6 	"/>
	<polygon class="st0" points="18.8,43 18.8,43 19,43 18.9,42.9 	"/>
	<polygon class="st0" points="18.9,43.7 19,43.5 18.8,43.6 	"/>
	<polygon class="st0" points="18.3,42.3 18.3,42.3 18.3,42.4 	"/>
	<polygon class="st0" points="18.2,43.1 18.3,43.3 18.4,43.3 18.3,43.2 	"/>
	<polygon class="st0" points="18.1,40.4 18.2,40.7 18.8,40.5 	"/>
	<polygon class="st0" points="14.4,39.5 14.6,39.5 14.6,39.3 	"/>
	<polygon class="st0" points="20,42.9 20.1,42.9 19.9,42.5 19.9,42.6 	"/>
	<polygon class="st0" points="19.7,38.8 19.4,38.8 19,38.9 19,39 19,38.9 18.9,38.9 18.8,38.9 18.5,39.1 19,39.2 19.3,39.2 
		19.3,39.1 19.6,38.9 	"/>
	<polygon class="st0" points="19.4,39.6 19.6,39.8 19.7,39.7 	"/>
	<polygon class="st0" points="19.9,40.5 19.7,40.7 20,40.5 	"/>
	<polygon class="st0" points="15.8,36.9 16,37.2 16.2,37 	"/>
	<polygon class="st0" points="16.9,36.1 17.1,36.1 16.7,36 16.8,35.8 16.7,35.7 16.7,35.4 16.6,35.4 16.6,35.5 16.5,35.5 16.1,35.7 
		16.3,35.9 16.5,35.8 16.6,35.8 16.6,35.9 16.7,36.3 17,36.2 	"/>
	<polygon class="st0" points="18.3,35.6 18,35.5 18.3,35.7 	"/>
	<polygon class="st0" points="15.2,38.5 15.7,38.7 15.7,38.8 15.5,38.8 15.8,38.9 16.1,38.7 15.4,38.4 	"/>
	<polygon class="st0" points="14.7,39.3 14.7,39.4 14.7,39.5 14.7,39.5 14.6,39.5 14.6,39.5 13.9,39.7 14.6,39.6 15,39.5 14.8,39.5 
		14.7,39.5 14.8,39.5 14.9,39.5 15.4,39.3 14.8,39.3 	"/>
	<polygon class="st0" points="16.1,37.3 16,37.2 16,37.2 	"/>
	<polygon class="st0" points="17.6,38.5 18,38.8 17.7,38.4 	"/>
	<polygon class="st0" points="17.8,36.5 18,36.5 17.9,36.3 	"/>
	<polygon class="st0" points="17.1,37.2 17,37.2 16.8,37.5 17.1,37.2 	"/>
	<polygon class="st0" points="17.2,39.6 17.6,39.3 17.1,39.6 	"/>
	<polygon class="st0" points="14.8,34.5 14.8,34.4 14.8,34.3 14.7,34.5 14.7,34.6 	"/>
	<polygon class="st0" points="18.5,39.6 18.5,39.6 18.8,39.5 18.7,39.5 	"/>
	<polygon class="st0" points="19.5,38.1 19.4,38 19.1,38.2 19.4,38.3 	"/>
	<polygon class="st0" points="19.1,38.4 19.1,38.5 19.3,38.5 	"/>
	<polygon class="st0" points="17.2,33.5 16.9,33.5 17.2,33.5 	"/>
	<polygon class="st0" points="18.7,40 18.9,39.8 18.8,39.7 18.5,39.8 	"/>
	<polygon class="st0" points="18.8,36.4 18.9,36.4 18.9,36.4 18.9,36.4 18.9,36.4 19,36.3 18.9,36.3 18.9,36 18.7,36.3 18.8,36.4 	
		"/>
	<polygon class="st0" points="17.7,37.2 17.7,37.3 17.9,37.3 17.9,37.2 17.9,37.1 	"/>
	<polygon class="st0" points="17.7,36.7 17.6,36.8 17.7,37.1 17.9,37 17.8,36.9 17.9,36.9 	"/>
	<polygon class="st0" points="18.2,37.4 18.4,37.5 18.7,37.3 18.3,37.3 	"/>
	<polygon class="st0" points="17.2,36.2 17.5,36.3 17.9,36.3 17.4,36.2 	"/>
	<polygon class="st0" points="18.1,37.1 18.3,37.2 18.4,37 18.4,37 18.1,37.1 	"/>
	<polygon class="st0" points="18.6,36.2 18.5,36.8 18.7,36.3 	"/>
	<polygon class="st0" points="20.3,38.2 20.2,38.2 20,38.3 20.2,38.2 	"/>
	<polygon class="st0" points="19.6,38.7 19.7,38.4 19.5,38.6 	"/>
	<polygon class="st0" points="20,39.6 20.2,39.4 20,39.1 20,39.3 	"/>
	<polygon class="st0" points="21.2,36.2 21.1,36.2 20.9,36.4 21.2,36.5 21.2,36.5 21.2,36.4 	"/>
	<polygon class="st0" points="20.9,37.2 21,37.1 20.9,37 21,36.8 20.7,36.9 	"/>
	<polygon class="st0" points="20.5,36.3 20.4,36.3 20.7,36.5 	"/>
	<polygon class="st0" points="19.9,37.9 19.8,37.7 19.8,37.9 19.8,38 	"/>
	<polygon class="st0" points="19.8,37.3 19.8,37.4 20.6,37.6 	"/>
	<polygon class="st0" points="20.3,39.4 20.2,39.6 20.4,39.5 	"/>
	<polygon class="st0" points="20.6,38.3 20.3,38.8 20.4,38.8 20.7,38.5 	"/>
	<polygon class="st0" points="15.8,35.5 15.7,35.4 15.7,35.4 15.8,35.5 	"/>
	<polygon class="st0" points="15.6,38.2 15.7,38.1 15.3,38 	"/>
	<polygon class="st0" points="15.6,35 15.4,35.1 15.6,35.1 	"/>
	<polygon class="st0" points="15.6,37.2 15.5,37.3 15.6,37.4 15.7,37.3 	"/>
	<polygon class="st0" points="14.1,38.3 14.1,38.4 14.5,38.1 14.3,37.9 	"/>
	<polygon class="st0" points="15.4,35.9 15.4,35.7 15.1,35.9 	"/>
	<polygon class="st0" points="15.3,34.4 15.2,34.6 15.5,34.6 	"/>
	<polygon class="st0" points="15.5,33.6 15.3,33.6 15.3,33.7 15.4,33.6 	"/>
	<polygon class="st0" points="15.2,36.4 14.5,36.7 14.6,36.8 15.3,36.4 	"/>
	<polygon class="st0" points="16.6,34.6 16.9,34.6 16.8,34.5 	"/>
	<polygon class="st0" points="15.8,37 15.5,36.8 15.3,36.9 15.7,37.1 	"/>
	<polygon class="st0" points="15.7,36.3 15.5,36.6 15.8,36.4 	"/>
	<polygon class="st0" points="16.9,32.2 16.7,32.1 16.7,32.3 16.9,32.3 	"/>
	<polygon class="st0" points="16.6,33.3 16.1,33.2 16.2,33.2 17.2,33 16.4,33.1 16.3,32.9 16.1,33 16.2,33.1 16,33.2 16,33.2 
		16,33.2 16.3,33.6 	"/>
	<polygon class="st0" points="16.1,32.5 16,32.4 16,32.6 	"/>
	<polygon class="st0" points="17.6,32.2 17.2,32.2 17.2,32.2 	"/>
	<polygon class="st0" points="17.4,33.1 17.6,33 17.5,33 	"/>
	<polygon class="st0" points="14.7,37.4 14.7,37.6 14.8,37.5 	"/>
	<polygon class="st0" points="15.1,37.3 15,37.4 15.1,37.5 	"/>
	<polygon class="st0" points="15.1,39 14.9,38.8 14.8,38.8 15,39 	"/>
	<polygon class="st0" points="14.9,38.6 15.1,38.3 14.9,38.1 14.7,38.2 14.9,38.6 	"/>
	<polygon class="st0" points="15.2,34.7 15.5,34.9 15.7,35.1 15.9,35 15.7,34.9 15.7,34.9 15.6,34.8 15.7,34.7 15.6,34.7 15.3,34.8 
			"/>
	<polygon class="st0" points="12.6,26.3 12.7,26.4 12.7,26.3 	"/>
	<polygon class="st0" points="15.3,27.6 15.2,27.8 15.3,28 15.4,27.8 	"/>
	<polygon class="st0" points="16.8,28.5 17,28.9 17.1,28.8 16.9,28.5 	"/>
	<polygon class="st0" points="15.5,27.9 15.4,27.9 15.3,28 15.3,28.1 15.2,28.4 15.3,28.4 15.5,28 15.5,28 15.6,27.8 	"/>
	<polygon class="st0" points="14.9,29.1 15,28.7 14.9,28.9 	"/>
	<polygon class="st0" points="15,27.9 14.9,27.7 14.8,28.1 15.1,28.1 	"/>
	<polygon class="st0" points="15.6,28.8 15.7,28.9 15.8,28.7 15.7,28.8 	"/>
	<polygon class="st0" points="16.6,27.2 16.4,27.1 16.4,27.3 16.7,27.1 	"/>
	<polygon class="st0" points="16.9,28.2 16.8,28 16.6,28.2 16.7,28.3 16.6,28.6 16.7,28.7 16.8,28.7 16.7,28.5 	"/>
	<polygon class="st0" points="16.1,28.5 16.2,28.4 16.3,28.2 16.1,28.2 	"/>
	<polygon class="st0" points="15.4,26.9 15.6,27 15.7,26.8 	"/>
	<polygon class="st0" points="14.5,27.7 14.7,27.8 14.8,27.7 14.6,27.6 	"/>
	<polygon class="st0" points="15.1,29.1 15.1,29.2 15.5,28.9 15.3,28.8 	"/>
	<polygon class="st0" points="14.3,26.9 14.1,26.8 14.1,26.9 14,27.1 14.1,27.1 	"/>
	<polygon class="st0" points="13.9,27.2 14,27.1 14,27.1 13.9,27 	"/>
	<polygon class="st0" points="13.6,26.9 13.8,26.8 13.5,26.8 	"/>
	<polygon class="st0" points="13,28.6 13.4,28.8 13.2,28.5 	"/>
	<polygon class="st0" points="13.2,28.3 13,28 12.8,28.1 13.2,28.4 	"/>
	<polygon class="st0" points="14.2,28.1 14.4,28.1 14.2,27.8 	"/>
	<polygon class="st0" points="15.4,27.3 15.3,27.1 15.2,27.5 15.4,27.5 	"/>
	<polygon class="st0" points="16.7,27.8 16.9,27.9 17,27.8 16.9,27.5 16.8,27.8 	"/>
	<polygon class="st0" points="14.8,27.5 14.8,27.7 15,27.3 14.8,27 14.6,27.1 14.8,27.3 	"/>
	<polygon class="st0" points="16.7,27.5 16.9,27.5 16.8,27.4 16.6,27.5 	"/>
	<polygon class="st0" points="20.7,28.3 20.7,29.1 20.8,29.2 20.7,28.2 	"/>
	<polygon class="st0" points="21.3,28.3 21.2,28.7 21.4,28.6 	"/>
	<polygon class="st0" points="23.6,28.5 23.6,28.6 23.7,28.5 23.6,28.7 23.7,28.7 23.6,28.8 23.6,29 23.7,29 23.8,28.6 23.7,28.5 
		23.8,28.5 23.7,28.3 23.6,28.4 	"/>
	<polygon class="st0" points="21.6,26.4 21.8,26.5 21.8,26.2 21.6,26.1 	"/>
	<polygon class="st0" points="21.6,26.8 21.5,26.9 21.6,27.5 	"/>
	<polygon class="st0" points="21.4,29.1 21.5,29.2 21.7,29 21.6,28.9 	"/>
	<polygon class="st0" points="21.7,27.9 21.8,27.7 21.6,27.9 	"/>
	<polygon class="st0" points="28,21.2 28.1,21.1 27.7,21.2 27.7,21.2 28.1,21.3 	"/>
	<polygon class="st0" points="22.3,26.3 22.3,26 22.2,26 22.1,26.1 22.3,26.3 	"/>
	<polygon class="st0" points="22.8,25.8 22.7,25.8 22.7,25.8 	"/>
	<polygon class="st0" points="23.6,27 23.4,27.2 23.5,27.2 	"/>
	<polygon class="st0" points="22.3,27.7 22.3,27.8 22.4,27.7 22.3,27.6 	"/>
	<polygon class="st0" points="17.4,27.4 17.3,27.3 17.5,27.3 17.6,27.4 17.6,27.1 17.2,26.5 17.2,26.5 17.4,27.1 17.2,27.1 
		16.9,27.4 17.1,27.5 17.2,27.4 17.3,27.5 	"/>
	<polygon class="st0" points="18.4,28 18.4,28.1 18.6,28.3 18.8,28.3 18.6,28.7 18.6,28.7 18.9,28.3 18.9,28.2 18.8,28.2 	"/>
	<polygon class="st0" points="19,27.4 18.8,27.5 18.6,27.5 18.8,27.6 18.6,27.7 18.7,27.7 18.8,27.7 18.9,27.8 19.1,27.5 	"/>
	<polygon class="st0" points="18.3,28.6 18.5,28.6 18.3,28.4 	"/>
	<polygon class="st0" points="17.6,28.2 17.5,28.2 17.3,28.1 17.2,28.1 17.4,28.2 17.2,28.5 17.3,28.4 17.8,28.7 17.9,28.7 
		17.6,28.1 	"/>
	<polygon class="st0" points="17.9,28.5 18.1,28.6 18.1,28.4 17.9,28.4 	"/>
	<polygon class="st0" points="19.7,26.8 19.6,26.9 19.6,27 19.7,27 19.8,26.9 19.8,26.8 	"/>
	<polygon class="st0" points="12.5,28.8 12.6,28.9 12.8,28.8 12.7,28.7 	"/>
	<polygon class="st0" points="20.7,27.5 20.8,27.7 20.8,27.1 	"/>
	<polygon class="st0" points="21.4,27.1 21.2,26.8 21.1,27 21.3,27.4 	"/>
	<polygon class="st0" points="19,28.4 18.9,28.4 19.1,28.6 19.2,28.6 19.1,28.5 	"/>
	<polygon class="st0" points="14.2,26.4 14.1,26.3 14.1,26.4 14,26.3 14,26.5 	"/>
	<polygon class="st0" points="21,35.1 20.9,35.1 21,35.2 21.1,35.1 21,34.9 20.9,34.9 	"/>
	<polygon class="st0" points="13,26.5 13.2,26.4 13.2,26.5 13.7,26.3 12.9,26.3 	"/>
	<polygon class="st0" points="19.8,43 19.8,43.2 19.9,43.3 19.9,43.3 20.2,43.2 20.3,43.2 20.4,43.2 20,43 	"/>
	<polygon class="st0" points="22.1,37.6 22.1,37.5 21.9,37.7 21.8,37.6 21.9,37.4 21.6,37.5 22,37.8 	"/>
	<polygon class="st0" points="21.4,35.7 21.4,35.7 21.2,35.6 20.8,35.7 	"/>
	<polygon class="st0" points="21.2,39 21.3,38.9 21.9,38.8 21.1,38.9 	"/>
	<polygon class="st0" points="14.9,26 15,26.1 15.1,26.1 15,25.9 	"/>
	<polygon class="st0" points="8.3,26.3 8.6,26.4 8.6,26.3 8.3,26.2 	"/>
	<polygon class="st0" points="12.1,26.5 12.1,26.4 12.2,26.2 12.5,26.1 12.1,25.9 	"/>
	<polygon class="st0" points="8.8,26.9 8.7,26.9 8.6,27.1 7.9,27.1 8.8,27.1 	"/>
	<polygon class="st0" points="21.8,32.1 21.7,31.9 21.7,32.2 22,32.1 	"/>
	<polygon class="st0" points="19.4,28.8 19.3,29.3 20.6,28.7 	"/>
	<polygon class="st0" points="20.7,42.5 20.7,42.7 20.8,42.9 21.2,42.6 	"/>
	<polygon class="st0" points="20.9,43.5 20.9,43.4 20.7,43.5 	"/>
	<polygon class="st0" points="21.1,42.9 21.4,43 21.5,43 21.3,42.8 	"/>
	<polygon class="st0" points="20.2,41.5 20.4,41.7 20.6,41.4 20.5,41.4 	"/>
	<polygon class="st0" points="20,41.8 20.4,42 20.1,41.8 	"/>
	<polygon class="st0" points="21.7,41.1 22,40.9 21.7,41.1 	"/>
	<polygon class="st0" points="21.8,40.4 21.8,40.3 21.7,40.4 21.7,40.4 	"/>
	<polygon class="st0" points="21.6,39.6 22,39.6 22.1,39.6 21.8,39.5 	"/>
	<polygon class="st0" points="21.5,39.8 21.6,39.9 21.5,39.8 	"/>
	<polygon class="st0" points="21.3,40.3 21.5,40.4 21.6,40.2 21.5,40.1 	"/>
	<polygon class="st0" points="12.8,26.2 12.8,26.3 12.9,26.3 12.8,26 	"/>
	<polygon class="st0" points="10.2,28.7 10.2,28.8 10.4,29 10.5,28.7 10.3,28.8 	"/>
	<polygon class="st0" points="10,27.4 9.8,27.6 10,27.6 10.3,28.4 	"/>
	<polygon class="st0" points="9.8,27.7 9.6,27.8 9.7,27.9 9.8,27.7 	"/>
	<polygon class="st0" points="9.7,28 9.8,28.1 9.9,27.9 9.9,27.8 	"/>
	<polygon class="st0" points="10.4,27.7 10.8,27.7 10.6,27.5 	"/>
	<polygon class="st0" points="10.9,28.4 11,28.4 11.1,28.3 11,28.3 	"/>
	<polygon class="st0" points="11.2,28.7 11.5,28.6 11.6,28.6 11.4,28.4 	"/>
	<polygon class="st0" points="9.7,28.2 9.7,28 9.7,27.9 	"/>
	<polygon class="st0" points="11.8,28.9 12,29.1 12,29.1 12.1,29 11.9,28.8 	"/>
	<polygon class="st0" points="10.8,27.3 11.1,27.4 11.1,27.4 10.9,27.2 	"/>
	<polygon class="st0" points="12.8,27.4 12.8,27.2 12.5,27.1 12.7,27.8 	"/>
	<polygon class="st0" points="12.8,26.3 12.8,26.4 12.9,26.4 	"/>
	<polygon class="st0" points="9,28.2 9.6,28.6 9.8,28.4 9.1,28.1 	"/>
	<polygon class="st0" points="12.6,26.6 12.6,26.6 12.6,26.7 12.7,26.9 12.8,26.7 12.8,26.7 13,26.7 12.8,26.7 12.8,26.4 12.7,26.4 
		12.6,26.6 	"/>
	<polygon class="st0" points="13,26.5 12.9,26.4 13,26.6 	"/>
	<polygon class="st0" points="10.7,26.4 10.6,26.2 10.7,26.3 10.7,26 10.6,25.9 10.6,26.1 10.5,26.2 	"/>
	<polygon class="st0" points="11.9,26.5 11,26 11,25.9 10.8,26.1 11.4,26.5 	"/>
	<polygon class="st0" points="8.7,26.5 8.9,26.7 9,26.6 8.7,26.5 	"/>
	<polygon class="st0" points="10.3,27.4 10.3,27.5 10.4,27.5 10.3,27.3 	"/>
	<polygon class="st0" points="10.4,26.8 10.5,26.9 10.6,26.4 10.6,26.4 10.4,26.6 10.3,26.5 10.4,26.4 10.3,26.4 10.2,26.5 
		10.4,26.7 	"/>
	<polygon class="st0" points="10.5,25.9 10.3,25.9 10.5,26.1 	"/>
	<polygon class="st0" points="11.4,35.8 11.5,36 11.9,36 11.9,35.9 11.5,35.7 	"/>
	<polygon class="st0" points="17.6,5.5 17.6,5.6 17.7,5.8 	"/>
	<polygon class="st0" points="17.7,6.1 17.6,5.9 17.6,6.1 17.6,6.2 	"/>
	<polygon class="st0" points="18.3,7.4 18.3,7.1 17.9,7.4 18.1,7.6 	"/>
	<polygon class="st0" points="17.9,7.6 17.8,7.6 17.6,7.7 	"/>
	<polygon class="st0" points="18.3,9.1 18.6,9.1 18.8,9.4 19.1,8.9 19,8.9 18.9,8.9 18.7,8.7 18.7,9 	"/>
	<polygon class="st0" points="16.4,8.5 16.6,8.4 16.5,8.4 	"/>
	<polygon class="st0" points="15.8,6 15.3,5.5 15.9,6.5 	"/>
	<polygon class="st0" points="15.4,6.7 15.5,6.5 15.4,6.5 15.1,6.3 15.3,6.7 	"/>
	<polygon class="st0" points="16.4,6 16.4,6 16.7,5.9 16.9,5.9 16.9,5.7 16.7,5.8 	"/>
	<polygon class="st0" points="16.6,5.5 16.1,5.4 16.1,5.5 16.8,5.6 	"/>
	<polygon class="st0" points="16.2,6.6 16.3,6.7 16.5,6.5 16.4,6.5 16,6.6 16,6.7 16.2,6.7 	"/>
	<polygon class="st0" points="18.5,8.1 18.5,8.9 18.7,8.7 	"/>
	<polygon class="st0" points="20.4,9.7 20.5,9.5 20.8,9.7 20.5,9.4 	"/>
	<polygon class="st0" points="19.8,9.7 19.5,9.4 19.4,9.5 19.8,9.7 	"/>
	<polygon class="st0" points="21.1,37.8 21.6,38.3 21.6,38.3 21.3,37.5 	"/>
	<polygon class="st0" points="17.2,8.3 17.5,8.5 17.6,8.5 17.2,8.3 	"/>
	<polygon class="st0" points="15.2,8.1 15.2,8.1 15,8.1 15.1,8.2 	"/>
	<polygon class="st0" points="20.5,9 20.3,8.9 20,9.2 20.2,9.3 	"/>
	<polygon class="st0" points="19.2,5.7 18.9,5.9 19.4,6.3 	"/>
	<polygon class="st0" points="19.8,9.5 19.8,9.7 20.1,9.4 20,9.5 19.8,9.4 	"/>
	<polygon class="st0" points="19.7,6.5 19.4,6.3 19.5,6.4 	"/>
	<polygon class="st0" points="19.7,8.6 19.8,8.4 19.6,8.4 	"/>
	<polygon class="st0" points="17.4,7.2 17.2,6.9 17.4,6.9 17.2,6.8 16.9,7 	"/>
	<polygon class="st0" points="11,13.7 11.2,13.7 11,13.6 10.8,13.7 	"/>
	<polygon class="st0" points="14.5,8.3 14.6,8.4 14.8,8.3 14.9,8.3 14.7,8.1 	"/>
	<polygon class="st0" points="11.2,13.3 10.9,13.2 11.3,13.5 	"/>
	<polygon class="st0" points="8.9,16.7 8.8,16.9 8.9,16.8 9.1,17 9.1,16.9 	"/>
	<polygon class="st0" points="8.8,13.9 8.6,14 8.7,14 9.2,13.9 	"/>
	<polygon class="st0" points="9.2,17.1 9.1,17 9.1,17 9,17.1 	"/>
	<polygon class="st0" points="11,15.5 11.1,15.3 11,15.2 11,15.3 10.7,15.3 	"/>
	<polygon class="st0" points="10.8,17.3 10.6,17.2 10.7,17.3 10.6,17.7 10.7,17.7 11,17.6 10.9,17.4 10.9,17.2 	"/>
	<polygon class="st0" points="10.5,14.8 10.3,14.9 10.3,15 10.3,15.1 	"/>
	<polygon class="st0" points="10.7,15.8 10.5,15.7 10.3,15.7 10.3,15.8 10.6,15.9 	"/>
	<polygon class="st0" points="10.2,18.3 10.5,17.9 10.4,17.9 10,18 	"/>
	<polygon class="st0" points="9.2,18.3 9.1,18.6 9.8,18.4 9.4,18.3 	"/>
	<polygon class="st0" points="13.6,9.1 13.6,9.1 13.7,8.9 	"/>
	<polygon class="st0" points="13.8,9.2 13.6,9.1 13.6,9.2 13.3,9.2 13.5,9.4 	"/>
	<polygon class="st0" points="12,10.6 11.8,10 11.7,10.1 12,10.8 	"/>
	<polygon class="st0" points="14.7,6.6 14.3,6.5 14.2,6.7 14.3,6.9 	"/>
	<polygon class="st0" points="11.8,12.2 11.9,12.2 12,11.9 11.8,12 	"/>
	<polygon class="st0" points="13.6,8.4 13.6,8.4 13.4,8.6 13.7,8.4 	"/>
	<polygon class="st0" points="12.3,11.5 12.3,11.5 12.1,11.2 	"/>
	<polygon class="st0" points="12.3,8.6 11.9,8.6 12.2,8.7 	"/>
	<polygon class="st0" points="12.1,8.4 12.2,8.4 12.3,8.4 12,8.2 12,8.2 12,8.3 11.9,8.6 	"/>
	<polygon class="st0" points="12.6,8.7 12.4,8.7 12.7,9.1 	"/>
	<polygon class="st0" points="16.9,21.9 16.9,22 16.9,22.1 	"/>
	<polygon class="st0" points="21.2,20.9 21.2,20.9 21,20.7 	"/>
	<polygon class="st0" points="20.1,19.9 20,19.8 19.9,19.9 20,20 	"/>
	<polygon class="st0" points="20,19.4 20,19.4 20.2,19.5 	"/>
	<polygon class="st0" points="16.3,8.5 16.4,8.5 16.2,8.5 	"/>
	<polygon class="st0" points="20.6,19.3 20.4,19.2 20.2,19.2 20.6,19.3 	"/>
	<polygon class="st0" points="20,22.6 20.1,22.6 19.8,22.4 19.6,22.6 	"/>
	<polygon class="st0" points="19.8,22.2 19.3,22.2 19.3,22.3 19.4,22.6 	"/>
	<polygon class="st0" points="18.7,22.5 18.5,22.1 18.4,22.3 18.6,22.6 	"/>
	<polygon class="st0" points="18.7,21.4 18.5,21.5 19,21.6 	"/>
	<polygon class="st0" points="19.1,21.1 19,21 18.8,21.2 19,21.3 	"/>
	<polygon class="st0" points="19.4,23.1 19.2,23.1 19.4,23.1 	"/>
	<polygon class="st0" points="21.4,21.3 21.9,21.3 21.5,21.2 21.2,21.3 	"/>
	<polygon class="st0" points="11.2,7.6 11.4,7.5 11.3,7.4 	"/>
	<polygon class="st0" points="17.1,23.2 17,23.3 17.1,23.6 17.1,23.3 	"/>
	<polygon class="st0" points="8.3,16.7 8.2,16.9 8.3,16.9 8.3,17 8.4,17 	"/>
	<polygon class="st0" points="20.3,21.1 20,21.5 20.1,21.6 20.9,21.4 20.8,21.2 	"/>
	<polygon class="st0" points="8.4,18 8.4,18.2 8.6,18 	"/>
	<polygon class="st0" points="20.9,21.9 21.1,22.2 21,21.8 	"/>
	<polygon class="st0" points="21.3,20.2 21.2,20.1 21.1,20.2 21.2,20.2 	"/>
	<polygon class="st0" points="18.7,22.8 18.9,22.9 19,22.8 18.6,22.6 18.4,22.7 18.3,22.9 18.4,22.9 	"/>
	<polygon class="st0" points="20.2,20 20.3,20.1 20.3,20 20.3,19.9 	"/>
	<polygon class="st0" points="20.2,20.8 20.5,20.5 20.2,20.7 	"/>
	<polygon class="st0" points="20.6,19.8 20.4,19.9 20.5,19.9 20.6,19.9 20.7,20 20.6,20.1 20.8,20.2 20.9,19.8 20.8,19.8 20.7,19.8 
		21.1,19.7 20.9,19.6 20.7,19.7 20.7,19.7 20.5,19.7 	"/>
	<polygon class="st0" points="21.9,8.3 21.7,8.3 21.7,8.5 	"/>
	<polygon class="st0" points="21.2,6.8 21,6.6 21,6.7 21.2,6.9 	"/>
	<polygon class="st0" points="22,8 21.9,7.9 21.7,8 21.9,8.2 	"/>
	<polygon class="st0" points="22,7.7 22,7.8 22.1,7.8 	"/>
	<polygon class="st0" points="22.4,7.5 22.4,7.5 22.3,7.6 	"/>
	<polygon class="st0" points="14.3,8.8 14.5,8.8 14.5,8.6 	"/>
	<polygon class="st0" points="14.3,9.4 14.5,9.5 14.5,9.3 14.3,9.3 	"/>
	<polygon class="st0" points="21.2,9.3 21,9.2 20.9,9.1 20.9,9.2 21,9.3 	"/>
	<polygon class="st0" points="22.4,7.5 22.2,7.4 22.4,7.5 	"/>
	<polygon class="st0" points="14.7,8 14.6,7.9 14.2,8 14.7,8.1 	"/>
	<polygon class="st0" points="15.3,23.5 15.2,23.2 15.1,23.3 15.2,23.5 	"/>
	<polygon class="st0" points="17.3,22.4 17.5,22.5 17.6,22.4 17.2,22.3 17.2,22.3 17.1,22.3 17.2,22.3 	"/>
	<polygon class="st0" points="10.9,17.7 10.6,17.9 10.7,18.1 	"/>
	<polygon class="st0" points="17.5,23.4 17.6,23.1 17.4,23.2 	"/>
	<polygon class="st0" points="14.7,20 14.9,20 14.8,19.8 14.5,20 14.6,20.2 	"/>
	<polygon class="st0" points="16.4,22.5 16.3,22.5 16.5,22.6 	"/>
	<polygon class="st0" points="17.4,22.6 17.4,22.7 17.6,22.7 17.5,22.6 	"/>
	<polygon class="st0" points="18.4,23.3 18.3,23.4 18.4,23.4 	"/>
	<polygon class="st0" points="16.2,20.9 16,20.8 15.9,20.8 16.1,20.9 	"/>
	<polygon class="st0" points="15,20.3 15.1,20.3 14.8,20.2 	"/>
	<polygon class="st0" points="15.9,20.5 15.6,20.4 15.6,20.5 	"/>
	<polygon class="st0" points="19.7,9.9 19.5,9.7 19.5,9.8 19.7,10 20,9.9 20.1,10 20.3,9.7 20.1,9.6 	"/>
	<polygon class="st0" points="12.5,38.8 12.4,38.6 12.2,38.8 12.3,38.9 	"/>
	<polygon class="st0" points="12.1,36.2 12,36.1 11.8,36.1 11.8,36.1 12,36.3 	"/>
	<polygon class="st0" points="12,35.6 12.1,35.7 12.2,35.5 12.1,35.4 	"/>
	<polygon class="st0" points="11.9,35.2 11.7,35.2 11.8,35.4 11.7,35.5 	"/>
	<polygon class="st0" points="12.2,37.7 12.1,37.6 12.1,37.7 12,38 12.1,38.1 12.4,37.9 12.3,37.8 12.3,37.6 	"/>
	<polygon class="st0" points="12.4,38 12,38.2 12.2,38.4 	"/>
	<polygon class="st0" points="11.4,32.4 11.3,32.3 11.3,32.6 	"/>
	<polygon class="st0" points="11.2,36.9 11.3,36.6 11.2,36.5 11,36.7 	"/>
	<polygon class="st0" points="10.4,36.5 10.5,36.7 10.7,36.5 11,36.5 11.2,36.5 10.8,36.3 	"/>
	<polygon class="st0" points="34.3,23.2 34.2,23.3 34.3,23.6 34.4,23.3 	"/>
	<polygon class="st0" points="11.6,34.3 11.5,34.2 11.4,34.4 	"/>
	<polygon class="st0" points="12.1,34.1 12.1,33.9 11.6,34 11.9,34.2 	"/>
	<polygon class="st0" points="11.8,38.2 11.5,38.4 11.6,38.6 11.9,38.2 	"/>
	<polygon class="st0" points="12.4,35.8 12.6,35.7 12.5,35.5 12.4,35.7 12.1,35.7 	"/>
	<polygon class="st0" points="23.2,36.3 22.6,35.7 22.8,35.6 22.7,35.4 22.4,36.1 22.1,35.7 22,35.7 21.8,35.8 22.7,36.5 22,36.8 
		22.4,37.4 22.5,37.4 23.1,37.5 23,37 22.8,36.9 22.9,36.9 22.9,36.8 	"/>
	<polygon class="st0" points="14.7,42.6 14.8,42.6 14.8,42.4 14.8,42.6 	"/>
	<polygon class="st0" points="10.9,40.7 11,40.5 11,40.4 	"/>
	<polygon class="st0" points="11.2,40.7 11,41 11.1,41.2 	"/>
	<polygon class="st0" points="12.1,40.7 11.5,40.6 11.6,40.8 	"/>
	<polygon class="st0" points="11.6,38.7 11.6,38.6 11.5,38.6 11.4,38.7 11.4,38.8 11.5,38.8 	"/>
	<polygon class="st0" points="11.6,36.9 11.3,37.1 11.6,37.1 	"/>
	<polygon class="st0" points="10.8,38.6 10.6,38.7 10.5,38.9 11.3,38.8 	"/>
	<polygon class="st0" points="11.9,41.5 12.3,41.6 12.2,41.5 12.3,41.4 	"/>
	<polygon class="st0" points="23.1,34.3 23.2,34.6 23.2,34.3 23.1,34.2 	"/>
	<polygon class="st0" points="23.8,34 23.8,34 23.7,34 23.2,34.3 	"/>
	<polygon class="st0" points="22.5,39 22.7,39 22.6,38.8 22.8,38.8 22.5,38.8 22.4,38.8 22.4,38.8 	"/>
	<polygon class="st0" points="24,32 23.8,31.9 23.9,32.1 	"/>
	<polygon class="st0" points="23.3,32.9 23.4,32.6 23.3,32.6 23.4,32.5 23.2,32.3 23,32.4 23.1,32.9 	"/>
	<polygon class="st0" points="22.6,34.7 22.6,34.8 22.7,34.8 	"/>
	<polygon class="st0" points="20.7,35.5 20.9,35.6 20.9,35.4 20.8,35.4 21,35.3 20.9,35.3 20.5,35.5 20.7,35.5 	"/>
	<polygon class="st0" points="12.3,39.6 12.4,39.7 12.6,39.5 12.6,39.5 12.5,39.4 	"/>
	<polygon class="st0" points="10.9,32.8 10.9,32.3 10.8,32.5 10.9,32.5 10.8,32.7 	"/>
	<polygon class="st0" points="23.1,35.5 23.2,35.9 23.5,34.9 23.4,34.7 23.1,35.4 23.1,35.5 23,35.6 23,35.7 	"/>
	<polygon class="st0" points="23.2,34.9 23.1,34.6 23,34.7 23.1,34.8 23,34.8 	"/>
	<polygon class="st0" points="22.9,34.8 22.9,34.7 22.9,34.8 22.7,34.8 	"/>
	<polygon class="st0" points="10.5,33.8 10.5,33.9 10.8,34.2 10.9,34.1 10.7,33.6 10.9,33.5 10.6,33.5 9.9,33.9 9.9,33.9 10.4,33.7 
			"/>
	<polygon class="st0" points="10.2,34.2 10.1,34.3 10.1,34.4 10.6,34.3 	"/>
	<polygon class="st0" points="10.7,37.5 10.6,37.3 10.5,37.4 10.4,37.5 	"/>
	<polygon class="st0" points="9.3,33.4 9.2,33.5 9.3,33.6 9.4,33.5 9.9,33.4 	"/>
	<polygon class="st0" points="11,33 11,33 10.7,32.7 10.6,33.1 10.9,33 	"/>
	<polygon class="st0" points="11,41.8 11,41.6 11.9,41.2 10.9,41.6 	"/>
	<polygon class="st0" points="9.9,38.4 9.8,38.5 10,38.4 	"/>
	<polygon class="st0" points="12.2,40.3 12.2,40 12.2,39.9 12.1,40 12.1,39.8 11.7,39.9 11.7,40 12.4,41.2 12.2,40.3 	"/>
	<polygon class="st0" points="10.5,37.4 10.6,37.3 10.3,37.1 10.2,37.2 10.3,37.2 	"/>
	<polygon class="st0" points="10.3,39.1 10.7,39.2 10.3,39 	"/>
	<polygon class="st0" points="11.8,16.6 11.7,16.9 11.9,16.9 	"/>
	<polygon class="st0" points="12.3,19.7 12.1,19.4 12.1,19.4 12.2,19.7 12.1,19.5 12,19.6 12.1,20 12.4,19.8 	"/>
	<polygon class="st0" points="12.1,20.4 12.3,20.5 12.5,20.3 12.3,20.2 	"/>
	<polygon class="st0" points="13,21.1 13,21.1 13.2,21.1 13.2,21 13.2,21 	"/>
	<polygon class="st0" points="11.3,17.9 11.3,19 11.5,18.1 	"/>
	<polygon class="st0" points="11.7,20.5 11.8,20.6 11.9,20.6 11.8,20.4 	"/>
	<polygon class="st0" points="13.2,19.2 13.4,19.1 12.4,19.3 	"/>
	<polygon class="st0" points="11.6,18.1 12.2,18.3 12.5,18.1 12.4,18 12.3,18 11.9,18 	"/>
	<polygon class="st0" points="13.3,22.4 13.4,22.4 13.5,22 13.4,22 	"/>
	<polygon class="st0" points="12.1,17.3 12.1,17.4 12.2,17.3 	"/>
	<polygon class="st0" points="13.4,21 13.7,20.8 13.3,20.9 	"/>
	<polygon class="st0" points="11.4,18.8 11.4,18.9 11.5,19 11.7,18.9 	"/>
	<polygon class="st0" points="9.7,37.1 9.7,37.3 9.7,37.2 9.7,37.4 9.8,37.4 	"/>
	<polygon class="st0" points="10.9,19.3 11,19.3 11.2,19.2 11.2,19.1 11.1,19.1 	"/>
	<polygon class="st0" points="10,15.5 10.1,15.6 10.5,15.7 10.5,15.6 10.1,15.3 	"/>
	<polygon class="st0" points="10.6,15.3 10.7,15.3 10.7,15.2 10.6,15.1 	"/>
	<polygon class="st0" points="10.5,13.8 10.6,13.7 10.6,13.5 10.2,13.7 	"/>
	<polygon class="st0" points="9.6,16.3 9.7,16.5 9.9,16.2 9.7,16.1 	"/>
	<polygon class="st0" points="10.2,16.7 10.2,16.5 9.8,16.8 	"/>
	<polygon class="st0" points="10.1,18.3 10.1,18.2 9.9,18.3 9.9,18.4 10,18.5 10.1,18.4 	"/>
	<polygon class="st0" points="10.5,21.2 10.9,21.3 10.8,21.2 10.9,21.1 	"/>
	<polygon class="st0" points="11,18.5 10.9,18.3 10.8,18.4 10.9,18.6 	"/>
	<polygon class="st0" points="10.1,20.3 10.2,20.4 10.7,20.4 	"/>
	<polygon class="st0" points="10.8,19.9 10.7,19.6 10.7,19.6 10.7,19.6 10.6,19.5 10.2,19.5 10.2,19.6 10.9,20.9 10.7,19.9 	"/>
	<polygon class="st0" points="9,16.2 9.1,16.3 9.2,16.1 9.5,16.2 9.7,16.2 9.3,15.9 	"/>
	<polygon class="st0" points="9.8,11.1 9.7,10.7 9.7,11 9.8,11.3 	"/>
	<polygon class="st0" points="9.9,11.9 9.9,11.7 9.8,11.4 	"/>
	<polygon class="st0" points="10.1,14 10,13.8 9.9,14.1 	"/>
	<polygon class="st0" points="9.9,12.3 10,12.1 9.8,11.9 	"/>
	<polygon class="st0" points="13,37.6 12.7,37.3 12.7,37.4 12.9,37.8 12.8,37.9 13,37.8 13.1,37.7 13,37.7 	"/>
	<polygon class="st0" points="10.2,13.3 10.1,13.4 10.2,13.5 10.3,13.4 10.5,13.5 10.5,13.5 10.8,13 10.8,12.9 10.1,13.2 10.2,13.2 
			"/>
	<polygon class="st0" points="13.3,37.8 13.2,37.7 13.1,37.7 	"/>
	<polygon class="st0" points="8.4,13.6 9,13.4 9.1,13.4 9.1,13.5 9.4,13.9 9.5,13.7 9.2,13.3 9.4,13.1 9.1,13.2 8.4,13.5 	"/>
	<polygon class="st0" points="8.4,13.1 7.8,13.1 7.7,13.1 7.9,13.3 8,13.1 	"/>
	<polygon class="st0" points="10.9,11.3 11.4,11.3 10.8,9.9 	"/>
	<polygon class="st0" points="10.4,10.4 10.2,10.7 10.5,10.7 	"/>
	<polygon class="st0" points="11.3,13.8 11,13.9 11.4,13.7 11.3,13.7 	"/>
	<polygon class="st0" points="11.5,17.4 11.4,17.5 11.6,17.5 11.7,17.4 11.6,17.3 11.6,17.2 11.3,17 11.3,17 	"/>
	<polygon class="st0" points="11.9,17.3 12,17.1 11.9,17 11.7,17.1 11.8,17.3 11.9,17.3 	"/>
	<polygon class="st0" points="11.8,17.3 11.7,17.4 11.8,17.4 	"/>
	<polygon class="st0" points="11.6,11.3 11.4,11.3 11.5,11.5 	"/>
	<polygon class="st0" points="10.7,9.1 10.3,9.2 10.8,9.3 	"/>
	<polygon class="st0" points="11.1,7.9 11.1,7.8 11.1,7.6 11,7.7 11.4,8.9 	"/>
	<polygon class="st0" points="11.2,9.9 11.3,9.7 10.3,9.8 10.3,9.9 	"/>
	<polygon class="st0" points="11,7.7 11,7.5 10.8,7.8 10.9,7.8 	"/>
	<polygon class="st0" points="29.1,17.3 29.2,17.1 29.1,17 29,17.1 29,17.3 29.1,17.3 	"/>
	<polygon class="st0" points="40.8,34.7 40.8,34.8 40.9,34.8 	"/>
	<polygon class="st0" points="27.9,27.7 28,27.8 28.7,27.2 28.7,27.2 	"/>
	<polygon class="st0" points="41.1,34.8 41.1,34.7 41.1,34.8 40.9,34.8 	"/>
	<polygon class="st0" points="41.4,34.9 41.3,34.6 41.2,34.7 41.3,34.8 41.2,34.8 	"/>
	<polygon class="st0" points="41.4,35.3 41.2,35.6 41.2,35.7 	"/>
	<polygon class="st0" points="40.7,32.6 40.7,32.5 40.6,32.4 40.5,32.6 	"/>
	<polygon class="st0" points="40.1,33.6 40.1,33.3 40,33.4 	"/>
	<polygon class="st0" points="29.4,18.6 29.6,18.5 29.5,18.4 29.2,18.6 	"/>
	<polygon class="st0" points="40.4,31.1 40.2,31.2 40.4,31.1 	"/>
	<polygon class="st0" points="40.5,31.2 40.5,31.4 40.6,31.3 40.5,31.2 40.6,31.1 40.5,31.2 40.4,31.2 	"/>
	<polygon class="st0" points="40.2,32.3 40.3,32.4 40.5,32.3 40.2,32 40.3,32.3 	"/>
	<polygon class="st0" points="26,13.9 25.8,14 25.9,14 26.4,13.9 	"/>
	<polygon class="st0" points="25.5,13.5 25.4,13.5 25.7,14 	"/>
	<rect x="25.2" y="16.5" class="st0" width="0.2" height="0.1"/>
	<polygon class="st0" points="35.4,27.5 35.3,27.6 35.3,27.6 	"/>
	<polygon class="st0" points="25.9,16.7 25.9,16.2 25.8,16.1 	"/>
	<polygon class="st0" points="25.2,13.1 25.7,13.1 25,13.1 25,13.1 25.1,13.3 	"/>
	<polygon class="st0" points="28.9,28.9 29.1,28.9 29.1,28.8 	"/>
	<polygon class="st0" points="25.7,16.1 25.8,16.1 25.7,16 	"/>
	<polygon class="st0" points="39.7,29.5 39.9,29.5 39.9,29.4 40.2,29.1 39.7,29.4 	"/>
	<polygon class="st0" points="27.5,31.5 27.3,31.7 27.4,31.7 	"/>
	<polygon class="st0" points="39.4,30.9 39.9,31.6 39.5,30.7 39.3,30.9 	"/>
	<polygon class="st0" points="39.1,36.1 39.1,36.1 38.8,36.2 38.9,36.2 	"/>
	<polygon class="st0" points="36.8,28.4 36.7,28.2 36.6,28.3 36.7,28.4 	"/>
	<rect x="37.1" y="29" class="st0" width="0.2" height="0.1"/>
	<polygon class="st0" points="37.3,28.8 37.2,28.8 37.2,28.9 	"/>
	<polygon class="st0" points="38.6,39.5 38.5,39.4 38.4,39.6 	"/>
	<polygon class="st0" points="38.5,28.7 38.6,28.6 38.5,28.5 38,28.7 38.1,28.8 	"/>
	<polygon class="st0" points="36.4,28.1 36.2,28.2 36.3,28.3 36.5,28.1 36.6,28.1 36.5,28.1 36.6,28.1 36.5,28.1 36.3,28 36,28.1 
		36.1,28.1 	"/>
	<polygon class="st0" points="35.8,27 35.2,26.9 35,27 35.1,27 	"/>
	<polygon class="st0" points="38.6,36.9 38.3,36.9 38.6,37.2 	"/>
	<polygon class="st0" points="35.1,27.5 35.1,27.5 35.3,27.6 35.3,27.3 	"/>
	<polygon class="st0" points="36.4,28.3 35.9,28.7 36.2,28.9 36.2,28.6 36.5,28.5 	"/>
	<rect x="36.2" y="29" class="st0" width="0.3" height="0.1"/>
	<polygon class="st0" points="39.4,30.3 39.3,30.1 38.6,30.4 39.2,30.5 	"/>
	<polygon class="st0" points="39.1,31.9 39.6,32.2 39.3,31.9 39.2,32 39.1,31.9 	"/>
	<polygon class="st0" points="39.2,31.1 39.2,31.2 39.2,31.2 	"/>
	<polygon class="st0" points="38.9,36.5 38.6,36.3 38.6,36.3 	"/>
	<polygon class="st0" points="39.6,37.3 39.2,37.1 39.5,37.4 	"/>
	<polygon class="st0" points="39.1,35.6 39.1,35.4 38.9,35.5 	"/>
	<polygon class="st0" points="39.2,35.2 39.3,35.1 39.2,34.9 39.1,34.9 39.1,35.1 39.1,35.1 	"/>
	<polygon class="st0" points="38.9,31.5 38.9,31.5 38.7,31.3 	"/>
	<polygon class="st0" points="26.3,13.3 26.2,13.4 26.4,13.4 	"/>
	<polygon class="st0" points="39.6,35.7 39.4,35.6 39,35.7 39.6,35.7 	"/>
	<polygon class="st0" points="38.7,35.9 38.8,35.9 38.8,35.6 38.7,35.7 	"/>
	<polygon class="st0" points="25.3,13.5 25.3,13.3 25.1,13.3 25.1,13.4 25.3,13.5 	"/>
	<polygon class="st0" points="31.6,9.4 31.7,9.5 31.7,9.3 31.6,9.3 	"/>
	<polygon class="st0" points="31.7,8.3 31.8,8.4 32.1,8.3 32.1,8.3 31.9,8.1 	"/>
	<polygon class="st0" points="31.6,8.8 31.8,8.8 31.7,8.6 	"/>
	<polygon class="st0" points="31.4,8.7 31,9.1 31.1,9.1 	"/>
	<polygon class="st0" points="29.6,11.1 29.7,11.2 29.8,11.2 29.7,11.1 	"/>
	<polygon class="st0" points="27.3,15.3 26.7,15.5 26.7,15.6 	"/>
	<polygon class="st0" points="32.3,8.2 32.4,8.1 32.4,8.1 32.2,8.1 	"/>
	<polygon class="st0" points="31.6,7.6 31.4,7.5 31.3,7.5 	"/>
	<polygon class="st0" points="31.5,7.5 31.4,7.4 31.6,7.3 32,7.5 32.1,7.4 31.3,7.1 31.2,7.4 31.4,7.5 	"/>
	<polygon class="st0" points="32.7,7 32.2,6.9 32.5,6.9 	"/>
	<polygon class="st0" points="29.5,11.1 29.6,11.1 29.5,10.9 29.4,10.9 29.4,11 29.5,11.1 29.1,11.1 29.2,11.2 29.3,11.3 29.4,11.3 
		29.5,11.2 29.5,11.4 29.6,11.4 	"/>
	<polygon class="st0" points="31.9,8.1 32,8 32,7.9 31.9,7.9 31.8,7.9 31.5,8 31.8,8.1 	"/>
	<polygon class="st0" points="29.6,11.5 29.5,11.4 29.6,11.5 	"/>
	<polygon class="st0" points="29,17.3 28.9,17.4 29,17.4 	"/>
	<polygon class="st0" points="29,16.6 28.9,16.9 29.1,16.9 	"/>
	<polygon class="st0" points="29.3,17.3 29.3,17.4 29.4,17.3 	"/>
	<polygon class="st0" points="28.6,17.5 28.8,17.5 28.9,17.4 28.8,17.3 28.8,17.2 28.5,17 28.5,17 28.7,17.4 	"/>
	<polygon class="st0" points="28.8,17.1 28.8,17.3 29,17.1 29,17.1 	"/>
	<polygon class="st0" points="28.3,15.3 28.5,15.5 28.5,15.4 28.4,14.9 	"/>
	<polygon class="st0" points="28.5,13.8 28.3,13.9 28.6,13.7 28.5,13.7 	"/>
	<polygon class="st0" points="28.2,16.8 28,17 28.5,16.8 28.4,16.8 	"/>
	<polygon class="st0" points="29.1,19.2 28.9,19.1 28.5,19.3 28.9,19.4 	"/>
	<polygon class="st0" points="32.1,7.7 32.1,7.9 32.8,7.6 32.5,7.4 	"/>
	<polygon class="st0" points="26.9,11 27,11.1 27,11.3 27.1,11.1 27.1,11.1 27.6,11.5 27.9,11.3 28,11.4 28.1,11.3 28,11.1 
		28.1,10.8 28.5,11 28.5,11.2 28.6,11.1 28.7,11.1 29.4,10.9 29.2,10.8 29.1,10.9 28.4,10.4 28,10.4 27.7,10.6 27.7,10.6 27.9,10.5 
		27.7,10.6 27.6,10.4 27.5,10.6 27.5,10.5 27.6,10.5 27.7,10.4 27.9,10.4 27.6,10.2 27.6,10.2 27.6,10.1 27.6,10.1 27.6,10.1 
		27.5,10.1 27.5,10.1 27.3,10 27.2,10.3 27.2,10.4 27.2,10.4 27.2,10.5 26.7,10.5 26.9,10.9 	"/>
	<polygon class="st0" points="29.6,10.3 29.6,9.7 29.5,9.7 	"/>
	<polygon class="st0" points="29.2,10.4 29.2,10.3 29.4,10.3 29.3,10.4 29.6,10.8 29.7,10.7 29.6,10.6 29.6,10.5 29.5,9.6 29.5,9.5 
		29.6,9.5 29.6,9.4 29.7,9.3 30,9.4 29.7,9.1 29.6,9.1 29.5,9 29.5,9.1 29.5,9.1 29.2,9.7 29.2,9.8 29.1,9.6 29,9.7 28.8,9.6 
		28.7,9.6 28.8,9.8 28.8,9.8 29,10 29.1,10.1 29,10.1 29,10 29,10.1 28.6,10.1 28.5,10.4 29.1,10.5 29.1,10.5 29.2,10.8 29.3,10.6 	
		"/>
	<polygon class="st0" points="27.6,8.8 27.5,8.8 27.3,8.9 27.3,8.9 	"/>
	<polygon class="st0" points="27.2,12.1 27.1,11.9 27.1,12.3 	"/>
	<polygon class="st0" points="27,11.4 27.1,11.9 27.2,11.7 	"/>
	<polygon class="st0" points="27,13.5 26.9,13.5 27,13.6 	"/>
	<polygon class="st0" points="26.8,13.6 26.9,13.4 26.9,13.5 26.8,13 	"/>
	<polygon class="st0" points="27.5,12.6 27.3,12.4 26.7,12.7 26.9,12.8 	"/>
	<polygon class="st0" points="28.1,9.6 27.9,9.6 27.9,9.8 	"/>
	<polygon class="st0" points="29.5,8.8 29.6,8.7 29.5,8.5 29.4,8.5 29.4,8.6 29.4,8.7 	"/>
	<polygon class="st0" points="30,10 30.3,9.8 30.3,9.7 30,9.8 	"/>
	<polygon class="st0" points="30.1,10.6 30.2,10.4 30.3,10.6 30.5,10.4 30.1,10.4 	"/>
	<polygon class="st0" points="31,9.2 30.8,9.1 30.8,9.2 30.5,9.2 30.7,9.4 	"/>
	<polygon class="st0" points="27.9,9.5 27.8,9.6 27.9,9.6 	"/>
	<polygon class="st0" points="30.8,8.4 30.8,8.4 30.7,8.6 30.9,8.4 	"/>
	<polygon class="st0" points="30.8,9.1 30.8,9.1 30.9,8.9 	"/>
	<polygon class="st0" points="29.8,8.7 29.6,8.7 30,9.1 	"/>
	<rect x="29.5" y="6.8" class="st0" width="0.1" height="0.3"/>
	<polygon class="st0" points="29.4,8.4 29.5,8.4 29.5,8.4 29.6,8.4 29.6,8 29.5,8.1 29.4,8.1 29.4,8.2 29.4,8.3 29.3,8.2 29.2,8.2 
		29.2,8.3 29.2,8.6 	"/>
	<polygon class="st0" points="29.9,7.9 29.8,7.8 29.7,7.9 29.8,8 	"/>
	<polygon class="st0" points="39.7,33.1 39.7,33.2 40,33.1 39.9,33 	"/>
	<polygon class="st0" points="33.2,40.1 33.2,40.3 33,40.5 33.4,40.6 33.4,40.6 33.3,40.1 	"/>
	<polygon class="st0" points="33.1,40.8 33.1,40.9 33.3,41.1 33.4,41 33.2,40.7 	"/>
	<polygon class="st0" points="32.8,40.6 32.7,40.8 33.1,40.8 33,40.8 	"/>
	<polygon class="st0" points="33,41.3 33,41.4 33.2,41.4 33.3,41.4 33.1,41.3 	"/>
	<polygon class="st0" points="33.6,42.4 33.7,42.4 33.8,42.4 33.7,42.3 	"/>
	<polygon class="st0" points="35,40.5 35,40.7 35,40.9 35.2,40.7 	"/>
	<polygon class="st0" points="35.4,41.8 35.1,41.6 35.2,42.3 35.2,42.1 	"/>
	<polygon class="st0" points="34.7,40.7 34.7,40.8 34.7,40.8 34.7,40.8 34.8,40.8 35,40.2 	"/>
	<polygon class="st0" points="34.1,40.2 33.9,40.3 33.9,40.4 34.3,40.3 	"/>
	<polygon class="st0" points="34.7,40.4 34.7,40.3 34.8,40.3 34.8,40.1 34.5,40 34.6,40 34.7,40.2 34.6,40.2 34.6,40.2 34.3,40.5 
		34.2,40.5 34.4,40.6 34.6,40.4 34.6,40.8 34.7,40.8 34.7,40.7 	"/>
	<polygon class="st0" points="33.9,41.6 33.9,41.6 33.9,41.5 	"/>
	<polygon class="st0" points="29.8,38.9 29.8,39.2 29.9,39.2 30,39 29.9,39 	"/>
	<polygon class="st0" points="30.8,37.2 30.8,37 30.7,37.1 	"/>
	<polygon class="st0" points="30.6,32.8 30.3,32.9 30.9,33 	"/>
	<polygon class="st0" points="30.8,33.8 30.8,33.6 30.5,33.7 30.8,33.9 	"/>
	<polygon class="st0" points="30,37 30.2,36.8 30.2,36.7 29.9,36.8 	"/>
	<polygon class="st0" points="29.9,33.5 30,33.5 30.2,33.2 29.9,33.3 	"/>
	<polygon class="st0" points="31.1,35.4 30.9,35.5 31,35.6 31.2,35.4 	"/>
	<polygon class="st0" points="30.6,36.4 30.9,36.2 30.7,36.1 	"/>
	<polygon class="st0" points="32.6,41.8 32.5,41.8 32.4,41.8 32.4,42 32.3,42.3 32.4,42.4 32.6,42.3 32.6,42 32.7,41.8 32.6,41.8 	
		"/>
	<polygon class="st0" points="31.6,40.1 31.8,40.2 31.7,40.1 	"/>
	<polygon class="st0" points="32.4,40.6 32.3,41 32.6,40.4 	"/>
	<polygon class="st0" points="33.1,42.3 33.1,42.4 33.3,42.3 33.2,42.2 	"/>
	<polygon class="st0" points="39.4,39 39.5,38.9 40.1,38.8 39.3,38.9 	"/>
	<polygon class="st0" points="40.7,38.8 40.6,38.8 40.6,38.8 40.7,39 40.9,39 40.8,38.8 40.9,38.8 	"/>
	<polygon class="st0" points="41.5,38.4 41.6,38.3 41.6,38.3 41.5,38.3 	"/>
	<polygon class="st0" points="38.9,39.9 38.6,40.1 39.1,39.8 39.1,39.7 38.9,39.7 	"/>
	<polygon class="st0" points="39.4,38.3 39,37.7 39.3,38.6 39.5,38.3 	"/>
	<path class="st0" d="M25.1,0.1C11.3,0.1,0.1,11.3,0.1,25.1C0.1,38.8,11.3,50,25.1,50C38.8,50,50,38.8,50,25.1
		C50,11.3,38.8,0.1,25.1,0.1z M41.5,13.7L41.5,13.7h-0.2H41.5z M7.7,16L8,16.1l-0.3-0.3c-0.1-0.5-0.1-0.9-0.1-1.4
		c0-1.3,0.2-2.4,0.7-3.6l0.2-0.5c0,0,0,0,0,0l0,0l0,0l0.1,0v-0.1l0.1,0l-0.1-0.1C8.9,9.8,9,9.5,9.2,9.3l0.2-0.1l-0.1,0
		c0.3-0.4,0.6-0.8,1-1.1c0.3-0.3,0.6-0.6,1-0.9l0.2,0.3l0.2,0.3L11.8,8v0.1H12L12,7.8l0-0.1l-0.2-0.1l0,0l0-0.2L11.5,7
		c0.5-0.4,1.1-0.7,1.7-1c0.3-0.1,0.6-0.2,0.8-0.3l0.1,0h0.6l0,0l-0.3-0.1c0.4-0.1,0.8-0.2,1.2-0.2v0h0.2l0,0l0.3,0h0
		c0.2,0,0.5,0,0.7,0c0.9,0,1.6,0.1,2.3,0.3l0.5,0.1l0.1,0.1l0-0.1h0v0.1L19.8,6l0-0.1c0.4,0.1,0.7,0.3,1,0.4
		c0.5,0.2,0.9,0.5,1.2,0.7c0.3,0.2,0.5,0.4,0.6,0.5l0,0.1V7.5l-0.1,0.2l0,0l-1.6,2.1l0-0.1l-0.1,0l-0.1,0.2l0,0.1l-0.5,0.6l-0.2-0.2
		v-0.1L20,10.3c-0.4-0.3-0.9-0.6-1.4-0.7l-0.1,0V9.3l-0.1,0.1c-0.5-0.2-1-0.3-1.5-0.3c-0.7,0-1.5,0.2-2.1,0.5l-0.4,0.2l0,0l0,0
		c-0.5,0.3-0.9,0.6-1.2,0.9c-0.5,0.5-0.9,1-1.1,1.7c-0.3,0.6-0.4,1.3-0.4,2v0.1h-0.1v0.2l0.1,0c0,0.1,0,0.3,0,0.4L11.4,15l-0.1,0.3
		l0.1,0.1l0.1-0.1c0.1,0.4,0.2,0.8,0.4,1.2c0.2,0.5,0.5,0.9,0.8,1.2l-0.1,0.2l0,0.1l0.2-0.1l0.3,0.3c0.1,0.1,0.2,0.2,0.3,0.3l0,0
		l0.2,0.1l0.1,0c0.4,0.3,0.7,0.5,1.2,0.7c0.6,0.3,1.3,0.5,2,0.5c0.6,0,1.2-0.2,1.8-0.4c0.6-0.2,1.2-0.6,1.7-1l0.7,0.9l-0.2,0h0.2
		l0.2,0.3l0.2,0.3l0,0l-0.1,0l0.1,0.2l0.1-0.1l0.9,1.2l-0.6,0l0.5,0h0.1l0.2,0.2c-0.1,0.1-0.3,0.2-0.6,0.5c-0.2,0.2-0.5,0.3-0.8,0.5
		l0-0.2l-0.1,0.3l-0.2,0.1c-0.5,0.3-1.1,0.5-1.8,0.7c-0.3,0.1-0.5,0.1-0.8,0.2l-0.1,0v0c0,0-0.1,0-0.1,0h0l-0.4-0.3l-0.2,0.1v0.1
		l0.1,0.1c-0.1,0-0.3,0-0.4,0l-0.1,0l-0.1,0h-0.2c-2.6,0-4.9-1-6.5-2.7l0,0l0.2-0.1L10.2,21l-0.5-0.5v0l0,0c-0.5-0.6-0.9-1.2-1.2-2
		l0.1,0l0.3-0.1l-0.3-0.1l-0.2,0c0,0,0-0.1,0-0.1l0,0l0,0c0,0,0-0.1,0-0.1l0,0L8.4,18l-0.1-0.1l0,0l-0.2-0.5l0,0.5l-0.1-0.4l0.1-0.1
		l0-0.2l0.1,0l0-0.1H8.2l0-0.1l0,0l0-0.5l0.2-0.1l0.1,0.1l0.3-0.3l0-0.1l-0.1-0.1V16l-0.5,0.2L8,15.2v1.2l-0.1,0.1l-0.1,0L7.7,16z
		 M8,16.5V17l-0.1,0c0-0.2-0.1-0.3-0.1-0.5L8,16.5z M8,17.2v0.1V17.2L8,17.2z M9.5,37.3l-0.1-0.4l0.1,0V37.3z M11.7,43.8l0.2-0.1
		l0.1,0.1H11.7z M24.5,32.2L24,34.4l0,0l0,0L23.5,36h-0.2v0.2l0.2-0.1l-0.2,1L23,36.9h-0.1l0,0.1l0.1,0.1l0,0.1l0.1,0h0.1l-0.3,1
		l-0.4,1.5l-0.3,0.1h0.2L22.4,40L22.3,40l-0.2,0.1l0-0.1H22l0,0.1l-0.2,0.1l0.1,0l0.1,0l0,0.1l0,0l0.1,0.2l0.2-0.4l-0.2,0h0l0.3-0.1
		l-0.4,1.4l-0.4-0.1l-0.2,0.4l0.1,0.1l0.4-0.1l-0.3,1.3h-0.1V43h-0.1v0.6h-0.1l-0.3,0.1h0.1l-0.1,0.1l0.2,0h-0.6l0.1,0h-0.2l-0.4,0
		h-1l-0.3-0.2l-0.2,0.1v0.1h-0.4l0-0.2l-0.1-0.1l0,0.1l0,0.2h-0.1l-0.9-2.6l0.1,0l0.1,0l-0.2-0.1v0l-0.8-2.3l0.4-0.1v-0.1h-0.2l0,0
		l0,0l-0.1,0.1L16.3,38c-0.3,0.8-0.7,2.1-1.2,3.4c-0.1,0.3-0.2,0.6-0.3,0.9l0.1,0l-0.1,0.4l-0.1-0.1v-0.1l-0.3,0.8
		c-0.1,0.2-0.1,0.4-0.1,0.4h-2.2v-0.4l-0.4,0.2l-0.1,0l-0.2,0.2h-0.1l-0.1-0.3l0.1-0.1l-0.2,0l-0.8-3.1h0.1l-0.2,0l-0.4-1.4l0.1,0
		l0.3-0.1l-0.3-0.1l-0.2,0l0-0.1l0-0.1l0.1-0.1l-0.1-0.1l0,0l-0.2-0.5v0.2l0-0.1l0,0l0-0.2l0.1,0l0-0.1H9.6l0-0.1l0,0l0-0.5l0.2-0.1
		l0.1,0.1l0.3-0.3l0-0.1l-0.1-0.1v0.1l-0.5,0.2l-0.1-1.1v1.2l-0.1,0.1h0l-0.1-0.3l0.2,0.1l-0.2-0.2l0-0.2L9.2,36l0-0.2L9.1,36
		L8,31.8h3.2l0.1,0.4l0.1-0.2l-0.1-0.2h0.6c0.1,0.5,0.2,1,0.3,1.4l-0.6,0.3l0.1,0v0.1l-0.1,0.2l0,0.1l0.1-0.1l0.3,0.1l0,0l0.3-0.5
		l0.1,0.6l-0.1,0l0.2,0c0.1,0.6,0.3,1,0.4,1.4l0,0.1l0.1,0.1c0.1,0.6,0.2,1,0.3,1.4l0,0h0l0,0.2l0,0l0,0.2l0,0l0,0.1l0-0.1h0
		l0.1-0.1l-0.1-0.1l1.3-4.8l0.1,0.1h0.1l-0.2-0.2l0.2-0.7h0.5l0.4,0.2v-0.1l-0.1-0.1h2.1l0.4,1.2l0.1,0.5l-0.1,0.2l0.1,0.1l0.1-0.1
		l1.1,3.7l0,0l0,0l0,0.1c0,0,0-0.1,0-0.1l0.1,0l0-0.1h0c0.2-0.9,0.4-1.8,0.6-2.6c0.2-0.9,0.4-1.8,0.6-2.6h0l0.2-0.1l-0.2,0
		c0-0.1,0-0.2,0.1-0.3h3.8L24.5,32.2z M24.7,29.2l-0.1,0l0.1,0.1v0h-5.4v0l0,0h-0.9l0-0.1l-0.1,0.1h-0.8l0.1-0.1l0-0.1l-0.3,0.2H14
		l-0.1-0.2l0,0.1l0.1,0.1h-1l0.2-0.1h-1.1l0.7,0.1h-0.5l0,0l-0.1,0l-0.1,0.1H8.9l0-0.1l-0.1,0.1H7.9v-1.4l0.2-0.4l0-0.1l-0.1,0
		l-0.1,0v-0.3v-1.4H12l0.1,0v0h2.4l-0.1,0.2l0.1,0.2H14l-0.2-0.3v0.3h-0.3l0.2,0.1l0.2,0l0,0.1l0.1,0v-0.1l0.1,0l0,0l0.5,0l0.1,0.2
		l-0.1,0.1l0.3,0.3l0.1,0l0.1-0.1h-0.1l-0.2-0.5l1.1-0.1h-1.1L14.6,26l0.1-0.3h0.2l-0.1,0.4l0.3-0.4h0.3l0.1,0.4l0-0.3v-0.1H17
		l0.1,0.1l0-0.1h4.9l0,0.1l0-0.1h2.6V29.2z M26,18.8l0,0.1L26,18.8L26,18.8c-0.1-0.1-0.2-0.2-0.3-0.3l-0.1-0.3
		c-0.5-1.1-0.7-2.3-0.7-3.6c0-0.8,0.1-1.6,0.3-2.3h0v0l0.2,0l0.2-0.2h-0.1l-0.2-0.2h-0.1c0.1-0.2,0.2-0.5,0.3-0.7l0.2-0.5l0.1,0.4
		v-0.4l0,0v-0.1l0.1,0l-0.1-0.1c0.3-0.5,0.6-0.9,0.9-1.3L27.1,9L27,8.7l0.2-0.1L27,8.6c0.2-0.2,0.3-0.4,0.5-0.6L27.6,8h0.1l0,0.2
		l0-0.2L28.3,8l-0.6-0.1l0-0.1c0.3-0.2,0.5-0.5,0.8-0.7l0.1,0.1l-0.1,0.1v0l-0.1,0.1v0l0.1,0l0.2,0l0.1,0.2L29.1,8v0.1h0.2l-0.1-0.2
		l0-0.1l-0.1,0h0.3l-0.3-0.2l0,0.2l0,0l0-0.2L28.7,7l0,0l0.4,0.3L29.4,7l-0.3,0.1l-0.2-0.2c0.5-0.3,1-0.6,1.5-0.8
		c0.7-0.3,1.5-0.5,2.4-0.6v0H33l0,0c0.4,0,0.7,0,1.1,0c0.9,0,1.6,0.1,2.3,0.3l0.4,0.1l0.1,0.1l0-0.1h0v0.1L37,6l0-0.1
		c0.4,0.1,0.7,0.3,1.1,0.4c0.5,0.2,0.9,0.5,1.2,0.7c0.3,0.2,0.5,0.4,0.6,0.5l-0.1,0.1V7.5l-0.1,0.2l0.1,0l-1.7,2.1l0-0.1l-0.1,0
		L38,9.8l0.1,0.1l-0.5,0.6l-0.2-0.2v-0.1l-0.1,0.1c-0.4-0.3-0.9-0.6-1.4-0.7c-0.1,0-0.1,0-0.2,0V9.3l-0.1,0.1l-0.3-0.1l0.1,0l-0.1,0
		l-0.1,0.1c-0.4-0.1-0.8-0.2-1.2-0.2c-0.3,0-0.6,0-0.9,0.1l0-0.2l-0.1,0l0,0.1c-0.4,0.1-0.7,0.2-1,0.3l-0.4,0.2l0,0l0,0
		c-0.4,0.2-0.8,0.5-1.2,0.9l0,0l0,0l0,0l-0.1,0.1l-0.1-0.1v0.1h0c-0.4,0.5-0.7,1-1,1.5c-0.3,0.6-0.4,1.3-0.4,2.1v0l-0.1,0v0.2l0.1,0
		c0,0.1,0,0.3,0,0.4h0L28.6,15l-0.1,0.3l0.1,0.1l0.2-0.1c0,0.2,0.1,0.5,0.1,0.7h-0.1l0,0l-0.1-0.1l0,0.1h0v-0.1l-0.1-0.2v0.1
		l-0.1-0.1L28.4,16l0.4,0.1l0.1,0l0,0.1l-0.2,0.2l0.3,0.1l0,0c0,0,0,0.1,0,0.1c0.6,1.3,1.6,2.3,2.8,2.8h0l0,0.2l0,0.2l0.1,0.1h0
		l-0.2-0.1l0.1,0.1L31.7,20l0.1,0.2l0.1-0.2h0.2l0.1,0.1l0.1,0l0,0l-0.1,0.2l0,0h0l0.2,0.1l-0.1,0.3l0.2,0l0.1-0.2v-0.2l0.2-0.2
		l-0.1,0L32.6,20l0,0l0,0l0,0l0.1,0.1v-0.1l-0.1,0l0,0l0.8,0.3L33.4,20l0-0.1h-0.3l0-0.1l0.2,0.1l0.5,0.3v-0.1l-0.6-0.3
		c0.2,0,0.5,0,0.7,0h0l0.4,0.2h0.1l-0.3-0.2c0.2,0,0.5,0,0.7-0.1l0,0v0l0.1,0c0.4-0.1,0.7-0.3,1-0.5c0,0,0.1,0,0.1-0.1l0.2,0.2
		l0.2-0.1l-0.2-0.1l0-0.2c0.2-0.1,0.3-0.3,0.4-0.5c0.1-0.2,0.2-0.4,0.3-0.6l0.1,0.1l0-0.1l-0.1-0.3v0h0l-0.1-0.3l0.6,0.2l0,0h0
		l0.7-0.5L38,16.8l0.5-0.2v-0.1l-0.1-0.1L37.5,17l-0.4-0.6l-0.4,0.2l0.1-0.2l-0.3,0.1l0.1,0.1l-0.2,0.1l0,0.1l-0.2,0.4l0,0.1
		l0.7-0.1l0.1-0.1l0,0.1h0.1L37,17.3v-0.1l-0.1,0l-0.1,0.1l-0.1,0l0,0l0,0.1h-1l0-0.2l0,0.2h-2.2v-1.2l0,0l1.1,0.4l0,0l0.4-0.2
		l-0.4-0.5l0-0.1v0.1l-0.1-0.1l0.1,0l0-0.1l-0.1,0.1l-0.1-0.1l-1,0.6v-2.4l0,0l0.1-0.1l-0.1,0v-0.1h1.3l-0.2,0.1l0.1,0.2l0.2-0.3
		h2.8l0.2,0.2l0.1-0.1l-0.2,0h1.8l-0.5,0.3l0.6-0.3l0.1,0l0,0h0.8l0.4,0.2l-0.4-0.2h0.6l0.4,0.2v0l-0.1,0l-0.3-0.1l0,0.1v0.1l0.1,0
		l0,0.1l0,0l0.1,0l0,2.1h0l0,0v0.5c0,0.4,0,0.8-0.1,1.2L41,18.1l0.2,0.1l-0.1,0.2h0.2c0,0.1,0,0.2-0.1,0.3l-0.2-0.1l0,0.3l0.2,0
		c-0.1,0.2-0.1,0.5-0.2,0.7c-0.3,0.8-0.8,1.5-1.4,2.2v0l0,0c-0.3,0.3-0.7,0.6-1.1,0.9l0-0.1l-0.1,0.2c-0.4,0.2-0.7,0.4-1.1,0.6
		c-0.5,0.2-1.1,0.4-1.7,0.5l-0.1,0v0c0,0-0.1,0-0.1,0h0l-0.4-0.3l-0.2,0.1v0.1l0.1,0.1l-0.4,0h0l-0.1,0l-0.1,0H34
		c-0.3,0-0.6,0-0.8,0h0l-0.1-0.1L33,23.6c-0.1,0-0.2,0-0.2,0l0.1-0.1H33l-0.2-0.1l-0.4,0v-0.1l-0.1,0.1l-0.2-0.1l0,0.3l0.1-0.1h0
		l0.1,0l0,0.1l0,0v0l0.2,0l-0.1,0.1c-0.7-0.1-1.5-0.3-2.2-0.6c-1-0.4-1.9-1-2.7-1.8l0,0l0,0c-0.1-0.1-0.1-0.1-0.2-0.2
		c-0.6-0.6-1.1-1.2-1.5-2h0.2l0.1-0.3L26,18.8z M32.5,19.6L32.5,19.6L32.5,19.6C32.4,19.6,32.4,19.6,32.5,19.6z M36.8,17.5
		L36.8,17.5H37H36.8z M41.6,38.3c-1,2.2-2.6,3.8-4.8,4.8c-0.1,0-0.1,0.1-0.2,0.1l0-0.1l-0.2,0l0.1,0.2c-0.4,0.2-0.8,0.3-1.2,0.4
		l0-0.2v-0.2l-0.4,0.2l0.3,0.2c-0.2,0-0.4,0.1-0.6,0.1l0,0l0.4-0.1l-0.1-0.1l-0.3,0.1l-0.1,0.1L33.7,43l-0.1,0.2l0.2,0.2l-0.4,0.5
		h-6.1v-7.7l0.1-0.1l0-0.2L27.3,36v-3.8l0.1,0v-0.3h-0.1v-0.2v-0.5l0.1,0l0-0.2h-0.1v-1.9h0.3l-0.1-0.2l0.2-0.1v0.1l0.4-0.1V29
		l-0.2,0l0,0.1l0.2,0l0.2,0l0.2,0h0.8V29l-0.2-0.1l-0.1,0v0l-0.4-0.1l0.2,0l-0.7-0.2l0.1-0.1h-0.1v0.1l-0.4,0.2l-0.3-0.1L27.3,29h0
		v-3.1h3.6L31,26l0.1-0.1h2.2l1.1,0.2l0.2-0.1c0.8,0.1,1.5,0.3,2.3,0.6c0.2,0.1,0.4,0.2,0.6,0.3l0,0.2l0.1-0.2l0,0h0l0,0l0,0h0l0,0
		c0.2,0.1,0.4,0.3,0.6,0.4l0,0.1l0.1,0c0.5,0.3,1,0.7,1.4,1.1l0.5,0.6c0.6,0.7,1,1.4,1.4,2.3C42.6,33.6,42.6,36.2,41.6,38.3z"/>
	<polygon class="st0" points="41.5,36.2 41.8,36 41.5,36 	"/>
	<polygon class="st0" points="38.2,41.8 38.4,41.8 38.1,41.6 	"/>
	<polygon class="st0" points="42.2,34.3 42.1,34.4 42.3,34.6 	"/>
	<polygon class="st0" points="41.6,36.8 41.4,37 41.4,37 41.2,36.9 41.1,36.9 41.2,37 41.3,37.1 41.3,37.2 41.3,37.2 41.6,37.2 
		41.7,37.2 41.4,37 	"/>
	<polygon class="st0" points="41.1,36.9 41.1,36.8 41.4,36.3 40.8,35.7 40.9,35.6 40.9,35.4 40.6,36.1 40.3,35.7 40.2,35.7 40,35.8 
		40.9,36.5 40.2,36.8 40.6,37.4 40.7,37.4 41.3,37.5 41.2,37 41,36.9 	"/>
	<polygon class="st0" points="38.1,40.5 37.9,40.7 38.1,40.5 	"/>
	<polygon class="st0" points="36.7,40.2 36.6,40.4 36.6,40.4 36.2,40.4 36.4,40.7 37,40.5 36.8,40.4 	"/>
	<polygon class="st0" points="36.5,40.7 36.4,40.9 36.6,41 36.8,40.7 36.6,40.8 	"/>
	<polygon class="st0" points="36.1,41.4 36.3,41.7 36.6,41.4 36.4,41.5 	"/>
	<polygon class="st0" points="35.8,41.2 35.9,41.3 36,41.2 35.9,41.1 36,40.9 	"/>
	<polygon class="st0" points="36.3,40 35.6,39.7 35.7,39.7 35.8,39.8 	"/>
	<polygon class="st0" points="37.9,38.4 37.7,38.6 37.8,38.7 	"/>
	<polygon class="st0" points="37.9,40.2 37.8,40.3 37.8,40.4 38,40.4 	"/>
	<polygon class="st0" points="37.7,39.6 37.4,39.9 37.8,39.7 	"/>
	<path class="st0" d="M38.1,36.8L38.1,36.8l0.2-0.2h-0.1c0.2-0.6,0.3-1.1,0.3-1.8c0-0.7-0.1-1.4-0.4-2.1c-0.2-0.6-0.5-1.1-0.9-1.5
		l0,0l-0.1,0c0,0-0.1-0.1-0.1-0.1c-0.3-0.3-0.6-0.5-0.9-0.7l0.1-0.1H36c-0.2-0.1-0.3-0.1-0.5-0.2c-0.6-0.3-1.3-0.4-2-0.4h-2.3v2.7
		l-0.1,0.1v0.2h0l0,0v3.8L31,36.6h0.1l0.1-0.1V40h2.1c0.6,0,1.1-0.1,1.5-0.2v0.1L35,40l0-0.1l0.2-0.2l0.1,0.1l0.2,0l-0.2-0.2h-0.1
		l0.1,0c1.3-0.5,2.2-1.4,2.7-2.7L38.1,36.8z"/>
	<polygon class="st0" points="35.3,42.5 35.3,42.8 35.3,42.8 35.5,42.7 35.4,42.7 35.5,42.5 	"/>
	<polygon class="st0" points="33,27.5 32.6,27.2 32.6,27.3 32.9,27.5 	"/>
	<polygon class="st0" points="32.2,27.5 32.5,27.7 32.3,27.4 	"/>
	<polygon class="st0" points="35.3,27.1 35.1,27.2 35.1,27.3 35.3,27.3 	"/>
	<polygon class="st0" points="30.9,28.2 30.9,28 30.8,27.9 31.1,27.7 30.9,27.6 30.8,27.6 30.6,28 	"/>
	<polygon class="st0" points="33.2,29.6 33.3,29.6 33.3,29.4 33,29.4 	"/>
	<polygon class="st0" points="32.8,28.8 32.7,28.9 32.6,28.9 32.5,28.9 32.4,28.9 32.5,28.9 32.2,29.1 32.5,29.1 32.6,29 32.7,29.1 
		32.7,29.1 33.3,29.1 33.3,29 33,29 33.1,28.9 33.5,29 33.5,29.1 33.6,29.1 33.8,29.1 33.7,29.4 34,29.1 34,29.1 34.2,29 34,29 
		34,29 33.4,28.7 33.3,28.8 33.4,28.7 33.4,28.6 33.5,28.5 33.4,28.4 33.3,28.5 33.2,28.4 33,28.6 32.9,28.5 33,28.3 32.6,28.2 
		32.4,28.6 	"/>
	<polygon class="st0" points="31.9,26.3 31.9,26.3 32.3,26 32.1,26 31.9,26 32.1,26.1 32,26.1 	"/>
	<polygon class="st0" points="30.2,27.9 30.2,28.2 30.4,28 30.4,27.9 	"/>
	<polygon class="st0" points="30.6,27.5 30.5,27.3 30.4,27.6 	"/>
	<polygon class="st0" points="30.2,29.1 30.8,29.1 30.8,29 30.5,29 30.5,29 30.5,28.9 30.1,28.9 	"/>
	<polygon class="st0" points="30.8,33.3 31.1,33.4 31.1,33.3 31,33.3 	"/>
	<polygon class="st0" points="31.1,34.1 31.2,33.8 31,34 	"/>
	<polygon class="st0" points="34.2,28.4 33.9,28.4 34.2,28.6 	"/>
	<polygon class="st0" points="35.2,29.2 35.2,29.3 35.4,29.3 35.3,29.1 	"/>
	<polygon class="st0" points="34,29.6 34.1,29.6 34.4,29.6 34.4,29.4 34.7,29.3 34.5,29.3 	"/>
	<polygon class="st0" points="30,29.1 30,28.8 29.6,28.9 29.9,29.1 	"/>
	<polygon class="st0" points="33.6,27.7 33.4,27.7 33.4,27.9 33.6,27.8 	"/>
	<polygon class="st0" points="35.8,28.7 35.5,28.6 35.6,28.8 35.5,28.9 	"/>
	<polygon class="st0" points="35.4,28.8 35.4,28.9 35.5,28.5 35.5,28.4 35.6,28.4 35.7,28.3 35.6,28.4 35.9,28.5 36.1,28.4 
		35.8,28.2 35.8,28.2 35.8,28.1 35.7,28.1 35.4,28.1 35.4,28.4 35.2,28.5 35.1,28.4 34.9,28.6 35.3,28.8 	"/>
	<polygon class="st0" points="33.5,26.7 33.4,27 33.6,26.8 	"/>
	<polygon class="st0" points="34.4,28.9 34.5,29 34.4,29.1 34.6,29 34.6,28.9 34.5,28.9 	"/>
	<polygon class="st0" points="30.2,27.4 30.5,27.3 30.1,26.9 30,26.9 30,27 30.1,27.2 	"/>
	<polygon class="st0" points="34.6,27.9 34.3,27.8 34.5,28.1 	"/>
	<polygon class="st0" points="35.1,29 35.1,28.9 34.9,28.9 34.8,29 34.8,29.1 35.2,29.1 	"/>
	<polygon class="st0" points="29.1,38.8 29.2,38.6 29,38.6 28.9,39 28.9,39.1 28.8,39.3 29.2,39 	"/>
	<polygon class="st0" points="28.9,39.2 28.5,39 28.5,39.1 	"/>
	<polygon class="st0" points="28,42 27.8,42.1 27.9,42.3 28.2,42.2 28.1,42 	"/>
	<polygon class="st0" points="28.5,40.7 28.4,41.1 28.4,41.1 28.3,41.2 28.4,41.2 28.3,41.5 28.2,41.6 28.3,41.9 28.4,41.3 
		28.6,41.5 28.4,41.2 	"/>
	<polygon class="st0" points="28.3,40 28.3,39.8 27.9,40.3 28,40.4 27.8,40.4 27.8,40.6 	"/>
	<polygon class="st0" points="29.1,32.8 29.1,32.3 29,32.5 29,32.5 29,32.7 	"/>
	<polygon class="st0" points="29.2,30.5 28.8,31.2 29.3,31.3 29.6,30.5 29.3,30.6 	"/>
	<polygon class="st0" points="29.5,33.8 29.5,33.6 29.3,33.5 	"/>
	<polygon class="st0" points="28.4,38.8 28.5,38.8 29.4,37.7 29.2,37.7 	"/>
	<polygon class="st0" points="29.2,36.9 29.3,37 29.5,36.9 29.4,36.8 	"/>
	<polygon class="st0" points="29.2,40.5 29.2,40.4 29.1,40.7 	"/>
	<polygon class="st0" points="28.9,36.8 28.9,36.6 28.7,36.7 	"/>
	<polygon class="st0" points="29,35.2 29,35.1 28.9,35.1 28.8,35.2 28.9,35.2 	"/>
	<polygon class="st0" points="29.2,37.3 29.2,37.2 28.8,37.7 	"/>
	<polygon class="st0" points="28.9,32.1 29.1,31.8 28.8,32 	"/>
	<polygon class="st0" points="28.8,33.1 28.9,33 29.2,33.1 29.2,33.1 29.1,33 29.1,33 29.2,33 29.2,33 28.9,32.7 28.8,32.8 
		28.7,32.9 28.8,33 	"/>
	<polygon class="st0" points="28.6,35 28.6,34.9 28.6,34.9 28.7,34.7 28.6,34.7 28.3,35.1 28.4,35.1 	"/>
	<polygon class="st0" points="27.5,37.6 27.5,37.7 27.7,37.5 27.6,37.5 	"/>
	<polygon class="st0" points="28.1,37 28.1,37 28.5,36.9 28.3,36.7 28.3,36.8 28.3,36.6 27.7,37.5 27.8,37.5 	"/>
	<polygon class="st0" points="28.4,38.2 28.5,38.3 28.7,38.2 28.7,38 28.5,38 	"/>
	<polygon class="st0" points="28.6,37.2 28.7,36.9 28.8,36.9 28.7,36.9 28.5,36.9 	"/>
	<polygon class="st0" points="27.3,18.3 27.3,18.2 27.2,18.3 27.2,18.4 27.2,18.5 27.3,18.4 	"/>
	<polygon class="st0" points="41.3,15.2 41.3,15.1 41.3,15.1 	"/>
	<polygon class="st0" points="41.4,15.4 41.5,15.4 41.4,15.1 41.3,15.1 	"/>
	<polygon class="st0" points="40,14.1 40.1,14.1 40,14.1 40,13.9 39.9,14 39.9,14 39.8,13.9 39.8,13.9 39.8,14 39.8,14.1 	"/>
	<polygon class="st0" points="41.3,15 41.3,15 41.1,14.8 	"/>
	<polygon class="st0" points="40.8,14.9 40.8,15.1 40.6,15.6 40.7,15.6 41.2,15.2 	"/>
	<polygon class="st0" points="41.3,15 41.3,15.1 41.3,15 41.3,14.8 	"/>
	<polygon class="st0" points="40.7,14.6 40.6,14.5 40.4,14.6 40.6,14.6 	"/>
	<polygon class="st0" points="40.9,14.5 40.8,14.3 40.7,14.5 40.9,14.6 	"/>
	<polygon class="st0" points="41.4,14.4 41,14.4 41.4,14.6 	"/>
	<polygon class="st0" points="40.6,15 40.7,15.1 40.8,15.1 40.6,14.9 	"/>
	<polygon class="st0" points="41.4,14.9 41.3,15 41.4,15.1 41.5,15 	"/>
	<polygon class="st0" points="41.2,15.7 41.2,15.7 41.1,16 41.2,16.1 41.5,15.6 41.4,15.4 41.1,15.4 	"/>
	<polygon class="st0" points="40.4,15.7 40.5,15.8 40.6,15.6 40.5,15.6 	"/>
	<polygon class="st0" points="40.4,17.2 40.3,17.1 40.3,17.4 	"/>
	<polygon class="st0" points="40.5,15.2 40.3,15.3 40.7,15.3 	"/>
	<polygon class="st0" points="40.5,19.2 40.6,19 40.4,19.2 	"/>
	<polygon class="st0" points="40.3,18.1 40.1,18.3 40.5,18.4 40.6,18.4 40.5,18 	"/>
	<polygon class="st0" points="40.3,17.8 40.3,17.5 40.3,17.7 	"/>
	<polygon class="st0" points="41,19 41.2,18.9 40.9,19 	"/>
	<polygon class="st0" points="40.9,19.3 40.6,19.2 40.7,19.6 41,19.5 40.9,19.5 41,19.3 	"/>
	<polygon class="st0" points="40.7,16.8 40.8,16.7 40.6,16.5 	"/>
	<polygon class="st0" points="40.7,16.5 40.7,16.5 41,16.3 40.9,16.3 40.9,16.4 	"/>
	<polygon class="st0" points="40.1,19 40.2,19.1 40.3,19 40.1,18.9 	"/>
	<polygon class="st0" points="40.7,15.9 40.9,15.8 40.8,15.7 	"/>
	<polygon class="st0" points="33.7,23.5 33.8,23.5 33.7,23.4 	"/>
	<polygon class="st0" points="37.3,19.4 37.2,19.4 37.4,19.5 	"/>
	<polygon class="st0" points="37,19 36.8,18.9 36.7,19 36.9,19 	"/>
	<polygon class="st0" points="34.1,22 34.1,22.1 34.1,21.9 	"/>
	<polygon class="st0" points="37.4,19.9 37.3,19.8 37.4,19.8 37.3,19.7 37.2,19.8 37.2,19.8 37.1,19.9 37.2,20 	"/>
	<polygon class="st0" points="39.6,14.4 39.5,14.4 40.1,14.7 40,14.7 40,14.9 40.1,14.9 40.1,14.8 40.3,14.9 40.2,14.8 40.5,14.9 
		40.5,14.8 40.4,14.7 40.3,14.7 40.3,14.7 40.3,14.7 40.1,14.7 40.1,14.6 40.2,14.6 40.1,14.6 39.9,14.6 40,14.5 39.8,14.2 
		39.6,14.3 	"/>
	<polygon class="st0" points="34.4,21.4 34.5,21.4 34.5,21.4 34.1,21.6 34.6,21.7 	"/>
	<polygon class="st0" points="34.7,22.6 34.6,22.6 34.6,22.7 34.8,22.7 	"/>
	<polygon class="st0" points="34.6,23 34.7,23.2 34.6,23.2 34.7,23.4 34.8,23.2 34.9,23.3 35.1,23.2 34.8,22.9 	"/>
	<polygon class="st0" points="34.8,22.4 34.5,22.3 34.4,22.3 34.3,22.3 34.4,22.3 34.5,22.4 34.8,22.5 	"/>
	<polygon class="st0" points="34.7,21.4 34.6,21.5 34.9,21.5 	"/>
	<polygon class="st0" points="36.6,23.1 36.4,23.1 36.6,23.1 	"/>
	<polygon class="st0" points="35.8,22.1 35.3,21.7 35.8,22.1 	"/>
	<polygon class="st0" points="38.5,14.5 38.5,14.6 38.7,14.7 	"/>
	<polygon class="st0" points="39.6,13.8 39.4,13.8 39.4,14 39.6,13.9 	"/>
	<polygon class="st0" points="39.2,14.6 39.2,14.4 38.9,15 38.9,15.6 	"/>
	<polygon class="st0" points="38.8,15.3 38.6,15.5 38.9,15.5 	"/>
	<polygon class="st0" points="38.3,19.4 38.2,19.5 38.3,19.5 38.4,19.4 38.5,19.4 38.4,19.4 38.6,19.1 38.4,19.4 38.3,19.3 
		38.1,19.4 	"/>
	<polygon class="st0" points="38.6,17.3 38.5,17.3 38.9,17.5 	"/>
	<polygon class="st0" points="37.4,19.2 37.8,19.3 37.9,19.3 37.6,19.2 	"/>
	<polygon class="st0" points="38,17.6 37.9,17.6 38.2,17.8 	"/>
	<polygon class="st0" points="37.6,19.1 37.4,18.6 37.3,18.9 37.5,19.1 	"/>
	<polygon class="st0" points="38.4,15.9 38.5,16 38.6,15.8 38.5,15.4 	"/>
	<polygon class="st0" points="35,14.4 35.2,14.3 35.1,14.1 35,14.3 34.9,14.3 34.8,14.4 35.1,14.5 	"/>
	<polygon class="st0" points="35,15.7 35,15.7 35.1,15.9 35.2,15.7 35.1,15.7 	"/>
	<polygon class="st0" points="35,15.2 35,15.3 35,15.7 35.1,15.3 	"/>
	<polygon class="st0" points="34.2,16.6 34.1,16.6 33.9,16.7 33.8,16.7 34,16.8 	"/>
	<polygon class="st0" points="35.5,15.2 35.3,15.3 35.4,15.4 	"/>
	<polygon class="st0" points="37.5,13.7 37.4,13.8 37.5,13.9 37.6,13.8 	"/>
	<polygon class="st0" points="37.2,14.1 37.2,14.1 36.9,14 36.9,14.1 37.4,14.3 37.5,14.3 37.3,14.1 	"/>
	<polygon class="st0" points="33.5,16.9 33.5,16.9 33.7,16.9 33.7,16.8 33.6,16.8 	"/>
	<polygon class="st0" points="36.6,16.2 36.8,16 36.5,16.2 	"/>
	<polygon class="st0" points="36.4,14.1 36.3,14.2 36.3,14.2 36.2,14.3 36.3,14.3 36.2,14.4 36.3,14.3 36.3,14.4 36.4,14.4 
		36.4,14.2 36.4,14.2 36.5,14.1 	"/>
	<polygon class="st0" points="35.5,16.1 35.6,15.8 35.3,15.9 	"/>
	<polygon class="st0" points="28.1,7.8 28.1,7.8 28.2,7.7 28.2,7.5 	"/>
	<polygon class="st0" points="38.9,17 38.5,16.9 38.6,17.1 	"/>
	<polygon class="st0" points="33.7,15.1 33.9,15 33.7,14.9 	"/>
	<polygon class="st0" points="34.4,16.8 34.4,17 34,16.9 34,17 34.1,17.1 34.4,17 34.6,17 34.6,16.8 34.5,16.6 34.6,16.8 	"/>
	<polygon class="st0" points="34.7,17.1 34.6,17 34.6,17 34.7,17.4 	"/>
	<polygon class="st0" points="30.1,10.8 30.2,10.7 30.3,10.8 30.3,10.8 30.2,10.6 	"/>
	<polygon class="st0" points="32.2,20.3 32.3,20.3 32,20.2 	"/>
	<polygon class="st0" points="26,18.5 25.7,18.4 25.8,18.5 	"/>
	<polygon class="st0" points="28.3,7.8 28.3,7.6 28.2,7.7 28.3,8 28.3,7.9 	"/>
	<polygon class="st0" points="37.5,15.3 37.7,15.1 37.7,15.1 	"/>
	<polygon class="st0" points="39.9,20.1 40,20.1 40.3,19.8 40.2,19.6 	"/>
	<polygon class="st0" points="32.8,9.2 33,9.2 33,9 	"/>
	<polygon class="st0" points="39.1,15.6 39.2,15.7 39.5,15.6 39.4,15.5 39.2,15.5 39.2,15.5 	"/>
	<polygon class="st0" points="39.7,17.3 39.6,17.4 39.5,17.3 39.5,17.3 39.4,17.2 39.3,17.4 39.6,17.6 39.8,17.6 39.9,17.6 
		39.6,17.4 39.9,17.4 	"/>
	<polygon class="st0" points="39.6,17.1 39.7,16.9 39.5,16.9 39.5,17.1 	"/>
	<polygon class="st0" points="39.6,18.2 40.2,17.9 39.7,17.7 	"/>
	<polygon class="st0" points="39.7,17.2 39.5,17.1 39.6,17.2 	"/>
	<polygon class="st0" points="39.3,16.7 39.1,16.9 39.5,17 39.5,16.9 39.6,16.9 	"/>
	<polygon class="st0" points="39.5,20.7 39.8,21 39.8,21 39.6,20.7 	"/>
	<polygon class="st0" points="40.1,18.1 39.8,18.2 40.2,18.2 	"/>
	<polygon class="st0" points="38.9,18.2 39.1,18.4 39.1,18.3 39,18.1 	"/>
	<polygon class="st0" points="38.9,21.5 39.1,21.5 39.3,21.5 39.2,21.2 	"/>
	<polygon class="st0" points="39.3,20.3 39.4,20.1 39,20.3 	"/>
	<polygon class="st0" points="38.2,21.9 38.3,22.2 38.2,21.8 	"/>
	<polygon class="st0" points="36.9,22.6 37.2,22.6 37.3,22.6 37,22.4 	"/>
	<polygon class="st0" points="38,19.8 37.9,19.7 37.8,19.7 37.9,20 37.9,20.1 38,20.2 38.2,19.8 	"/>
	<polygon class="st0" points="37.6,20 37.5,19.9 37.4,20 37.5,20.1 	"/>
	<polygon class="st0" points="37,21.9 36.8,21.6 36.7,21.7 36.9,21.9 	"/>
	<polygon class="st0" points="38.7,21.8 38.7,21.9 39,21.9 38.8,21.7 	"/>
	<polygon class="st0" points="37.5,20.8 37.7,20.5 37.5,20.7 	"/>
	<polygon class="st0" points="38.8,20.1 38.7,20 38.6,20 38.7,20.2 	"/>
	<polygon class="st0" points="38.5,20.9 38.5,20.9 38.2,20.7 	"/>
	<polygon class="st0" points="38.6,19.6 38.5,19.7 38.7,19.6 	"/>
	<polygon class="st0" points="38.4,20.2 38.4,20.2 38.5,20.2 38.4,20.1 	"/>
	<polygon class="st0" points="33.4,20.9 33.2,20.8 33.2,20.8 33.4,20.9 	"/>
	<polygon class="st0" points="34.4,6.9 34.6,6.9 34.4,6.8 34.1,7 34.6,7.2 	"/>
	<polygon class="st0" points="28,17.3 27.9,17.2 27.9,17.3 27.8,17.7 27.9,17.7 28.2,17.6 28.1,17.4 28.1,17.2 	"/>
	<polygon class="st0" points="34.9,5.5 34.8,5.6 34.9,5.8 	"/>
	<polygon class="st0" points="34.9,6.1 34.9,5.9 34.8,6.1 34.9,6.2 	"/>
	<polygon class="st0" points="33.8,5.5 33.3,5.4 33.3,5.5 34,5.6 	"/>
	<polygon class="st0" points="34.3,6.4 34.1,6.7 34.4,6.3 	"/>
	<polygon class="st0" points="27.3,13.8 27.2,14 27.1,14.1 27.2,14.1 27.9,14.7 27.9,13.5 27.8,13.6 27.4,13.7 27.5,13.7 27.3,13.9 
			"/>
	<polygon class="st0" points="27,15.9 27.1,15.9 26.7,15.8 26.3,16 26.4,16 	"/>
	<polygon class="st0" points="26.3,16.8 26.4,16.9 27,16.8 	"/>
	<polygon class="st0" points="27.5,16.8 27,16.8 27.5,16.9 	"/>
	<polygon class="st0" points="33.4,6.6 33.5,6.7 33.7,6.5 33.6,6.5 33.2,6.6 33.2,6.7 33.4,6.7 	"/>
	<polygon class="st0" points="35.2,7.6 35,7.6 34.9,7.7 	"/>
	<polygon class="st0" points="35.5,7.4 35.5,7.1 35.1,7.4 35.3,7.6 	"/>
	<polygon class="st0" points="37.6,8 37.5,8.1 37.3,8 37.5,8.3 	"/>
	<polygon class="st0" points="38.2,7.3 38.1,6.6 37.9,7.2 38,7.1 	"/>
	<polygon class="st0" points="38.2,8.6 38.3,8.5 38.3,8.3 38.2,8.3 	"/>
	<polygon class="st0" points="38.1,9.2 38.2,9.3 38.4,9.3 38.2,9.2 38.2,9.1 	"/>
	<polygon class="st0" points="37.8,9 37.8,8.7 37.3,9.1 37.4,9.2 	"/>
	<polygon class="st0" points="35.4,8.8 35.3,9 35.4,9.1 35.4,9.1 35.5,9.1 35.5,9.1 35.6,9.1 35.7,9.2 35.7,9.1 35.8,9.1 36,9.4 
		36.3,8.9 36.2,8.9 35.6,9.1 35.6,8.8 35.3,8.8 	"/>
	<polygon class="st0" points="36.9,6.5 36.6,6.3 36.7,6.4 	"/>
	<polygon class="st0" points="37.1,9.5 37.3,9.3 37.2,9.2 37,9.4 	"/>
	<polygon class="st0" points="37,8.6 37,8.4 36.8,8.4 	"/>
	<polygon class="st0" points="36.4,5.7 36.2,5.9 36.6,6.3 	"/>
	<polygon class="st0" points="26.7,17.7 27,17.7 26.8,17.6 	"/>
	<polygon class="st0" points="27.5,19.5 27.5,19.6 28.2,20.9 27.9,19.5 	"/>
	<polygon class="st0" points="27.9,18.9 28.1,19.1 28.3,19 28.4,18.9 28.2,18.8 	"/>
	<polygon class="st0" points="27.4,20.4 27.9,20.4 27.3,20.3 	"/>
	<polygon class="st0" points="27.6,16.8 27.6,16.9 27.8,16.9 27.9,16.5 	"/>
	<polygon class="st0" points="38.9,14 39,14.2 38.9,13.9 38.9,13.8 	"/>
	<polygon class="st0" points="30.5,22.4 30.6,22.4 30.8,22 30.6,22 	"/>
	<polygon class="st0" points="30.6,21 30.9,20.8 30.6,20.9 	"/>
	<polygon class="st0" points="31.2,19.3 30.5,18.9 30.4,18.9 30.4,18.7 30.2,18.8 31,19.3 	"/>
	<polygon class="st0" points="29.6,19.3 29.4,19.3 29,19.5 29.1,19.6 	"/>
	<polygon class="st0" points="30.3,21.1 30.3,21.1 30.4,21.1 30.4,21 30.4,21 	"/>
	<polygon class="st0" points="38.4,6.8 38.2,6.6 38.2,6.7 38.4,6.9 	"/>
	<polygon class="st0" points="28.9,20.5 29.1,20.6 29.1,20.6 29.1,20.4 	"/>
	<polygon class="st0" points="28.4,13.3 28.2,13.2 28.5,13.5 	"/>
	<polygon class="st0" points="28.1,14.8 28,15 28.2,15 	"/>
	<polygon class="st0" points="27.7,15.9 27.8,15.9 27.9,15.8 27.8,15.8 27.8,15.7 27.5,15.6 27.4,15.8 27.5,15.9 	"/>
	<polygon class="st0" points="28.3,15.3 28.3,15.2 28.2,15.3 27.9,15.3 28.2,15.5 	"/>
	<polygon class="st0" points="27.9,15.1 27.8,15.3 27.9,15.3 27.9,15.2 	"/>
	<polygon class="st0" points="28.2,13.6 28,13.7 28.2,13.7 28.5,13.7 	"/>
	<polygon class="st0" points="27.5,12.3 27.7,12.5 27.6,12.2 	"/>
	<polygon class="st0" points="27.7,14.8 27.5,14.9 27.5,15 27.5,15.1 	"/>
	<polygon class="st0" points="28.1,12 27.8,11.7 27.7,12 27.7,12.1 28.2,12.2 28.4,12 28.3,11.9 	"/>
	<polygon class="st0" points="28.2,12.4 28.1,12.4 28.1,12.6 28.4,12.6 	"/>
	<polygon class="st0" points="35.1,20.2 35,20.1 34.9,20.1 35,20.3 	"/>
	<polygon class="st0" points="32.8,23 32.9,22.9 32.8,22.9 32.7,22.9 	"/>
	<polygon class="st0" points="34.6,8.1 34.6,8 34.2,8.2 34.4,8.6 34.5,8.4 34.7,8.5 34.9,8.5 34.5,8.3 	"/>
	<polygon class="st0" points="33,23 32.8,23 32.3,23 32.3,23.1 33,23 	"/>
	<polygon class="st0" points="33.1,20.5 32.8,20.4 32.9,20.5 	"/>
	<polygon class="st0" points="32.9,22.9 32.9,22.8 32.7,22.8 32.8,22.9 	"/>
	<polygon class="st0" points="39.6,7.5 39.4,7.4 39.6,7.5 	"/>
	<polygon class="st0" points="39.1,8.3 38.9,8.3 38.9,8.5 	"/>
	<polygon class="st0" points="33.6,5.9 34,6.2 33.8,5.9 	"/>
	<polygon class="st0" points="32.2,20.7 32.3,20.6 32,20.6 32,20.7 32.2,20.7 	"/>
	<polygon class="st0" points="29.4,20.4 29.5,20.5 29.7,20.3 29.6,20.2 	"/>
	<polygon class="st0" points="32.2,22.9 31.9,22.9 31.9,23 32.2,23.1 	"/>
	<polygon class="st0" points="32.7,22.8 32.4,22.8 32.4,22.9 32.7,22.9 	"/>
	<polygon class="st0" points="33.6,22.5 33.6,22.5 33.7,22.6 	"/>
	<polygon class="st0" points="36,21.4 35.7,21.3 35.8,21.6 	"/>
	<polygon class="st0" points="35.5,22.6 35.8,22.9 35.9,22.8 35.6,22.6 	"/>
	<polygon class="st0" points="34.9,20.8 35.2,20.9 35.3,20.9 35.1,20.7 	"/>
	<polygon class="st0" points="35.7,22.3 35.8,22.6 35.9,22.5 35.7,22.1 	"/>
	<polygon class="st0" points="35.4,19.8 35.3,19.6 35.2,19.7 35.2,19.8 35.4,19.8 	"/>
	<polygon class="st0" points="34,20.9 33.8,20.8 33.6,21 33.7,21 	"/>
	<polygon class="st0" points="33.8,21.5 34,21.6 34.2,21.4 33.6,21.4 33.8,21.6 	"/>
	<polygon class="st0" points="35.6,23.4 35.6,23.3 35.5,23.4 	"/>
	<polygon class="st0" points="34.6,21.2 34.8,20.7 34.5,20.5 34.2,20.7 34.3,20.7 	"/>
	<polygon class="st0" points="39.6,7.5 39.6,7.5 39.5,7.6 	"/>
	<polygon class="st0" points="37,9.9 36.8,9.7 36.8,9.8 36.9,10 37.2,9.9 37.4,10 37.5,9.7 37.4,9.6 	"/>
	<polygon class="st0" points="37,9.7 36.7,9.4 36.6,9.5 37,9.7 	"/>
	<polygon class="st0" points="39.3,7.7 39.3,7.8 39.4,7.8 	"/>
	<polygon class="st0" points="34.6,8 34.8,8.1 35,7.9 34.9,7.9 	"/>
	<polygon class="st0" points="39.2,8 39.1,7.9 38.9,8 39.1,8.2 	"/>
	<polygon class="st0" points="37.6,9.7 37.8,9.5 38.1,9.7 37.7,9.4 	"/>
</g>
</svg>
