<svg xmlns="http://www.w3.org/2000/svg" width="50.99" height="51" viewBox="0 0 50.99 51">
  <g id="instagram" transform="translate(-0.448)">
    <path id="Tracé_8" data-name="Tracé 8" d="M51.309,14.994a18.636,18.636,0,0,0-1.185-6.187,13.064,13.064,0,0,0-7.462-7.462A18.683,18.683,0,0,0,36.475.16C33.745.03,32.878,0,25.954,0S18.163.03,15.443.149A18.641,18.641,0,0,0,9.256,1.335,12.444,12.444,0,0,0,4.733,4.284,12.556,12.556,0,0,0,1.794,8.8,18.686,18.686,0,0,0,.608,14.984c-.13,2.73-.16,3.6-.16,10.521S.479,33.3.6,36.016A18.634,18.634,0,0,0,1.784,42.2a13.062,13.062,0,0,0,7.462,7.462,18.686,18.686,0,0,0,6.187,1.185c2.72.12,3.587.149,10.511.149s7.791-.03,10.511-.149a18.631,18.631,0,0,0,6.187-1.185A13.045,13.045,0,0,0,50.1,42.2a18.7,18.7,0,0,0,1.185-6.187c.119-2.72.149-3.587.149-10.511s-.01-7.791-.13-10.511ZM46.717,35.817a13.979,13.979,0,0,1-.877,4.732A8.46,8.46,0,0,1,41,45.391a14.028,14.028,0,0,1-4.732.876c-2.69.12-3.5.149-10.3.149s-7.622-.03-10.3-.149a13.971,13.971,0,0,1-4.732-.876A7.848,7.848,0,0,1,8,43.488a7.929,7.929,0,0,1-1.9-2.929,14.031,14.031,0,0,1-.876-4.732c-.12-2.69-.149-3.5-.149-10.3s.03-7.622.149-10.3A13.972,13.972,0,0,1,6.1,10.491,7.752,7.752,0,0,1,8.011,7.562a7.917,7.917,0,0,1,2.929-1.9,14.038,14.038,0,0,1,4.732-.877c2.69-.119,3.5-.149,10.3-.149s7.622.03,10.3.149a13.979,13.979,0,0,1,4.732.877,7.842,7.842,0,0,1,2.929,1.9,7.927,7.927,0,0,1,1.9,2.929,14.036,14.036,0,0,1,.877,4.732c.119,2.69.149,3.5.149,10.3s-.03,7.6-.149,10.292Zm0,0" transform="translate(0 0)" fill="#3d041e"/>
    <path id="Tracé_9" data-name="Tracé 9" d="M138.05,124.5a13.1,13.1,0,1,0,13.1,13.1A13.1,13.1,0,0,0,138.05,124.5Zm0,21.6a8.5,8.5,0,1,1,8.5-8.5,8.5,8.5,0,0,1-8.5,8.5Zm0,0" transform="translate(-112.097 -112.096)" fill="#3d041e"/>
    <path id="Tracé_10" data-name="Tracé 10" d="M368.567,91.66a3.059,3.059,0,1,1-3.059-3.059A3.059,3.059,0,0,1,368.567,91.66Zm0,0" transform="translate(-325.935 -79.774)" fill="#3d041e"/>
  </g>
</svg>
