<svg id="Calque_1" data-name="Calque 1" xmlns="http://www.w3.org/2000/svg" viewBox="0 0 267.65 102.92"><defs><style>.cls-1{fill:#fff;}</style></defs><polygon class="cls-1" points="229.08 49.54 263.21 2.17 250.35 2.17 222.65 40.69 194.64 2.17 181.82 2.17 216.22 49.63 178.12 102.58 190.87 102.58 222.64 58.49 254.59 102.58 267.65 102.58 229.08 49.54"/><polygon class="cls-1" points="0 84.84 0 102.92 10.08 102.92 10.08 84.84 10.08 0 0 0 0 84.84"/><polygon class="cls-1" points="138.1 84.84 138.1 102.92 148.18 102.92 148.18 84.84 148.18 0 138.1 0 138.1 84.84"/><polygon class="cls-1" points="44.81 42.34 44.81 52.41 55.1 52.41 103.37 52.41 103.37 42.34 55.1 42.34 44.81 42.34"/><polygon class="cls-1" points="55.1 92.8 44.81 92.8 44.81 102.92 103.37 102.92 103.37 92.85 55.1 92.85 55.1 92.8"/><polygon class="cls-1" points="44.81 10.08 55.1 10.08 103.79 10.08 103.79 0 44.81 0 44.81 10.08"/></svg>