<svg id="mouse" xmlns="http://www.w3.org/2000/svg" width="47.88" height="81.388" viewBox="0 0 47.88 81.388">
  <path id="Tracé_1" data-name="Tracé 1" d="M23.94,0A23.967,23.967,0,0,0,0,23.94V57.448a23.94,23.94,0,0,0,47.879,0V23.94A23.967,23.967,0,0,0,23.94,0ZM43,57.448a19.057,19.057,0,0,1-38.113,0V23.94A19.057,19.057,0,1,1,43,23.94Zm0,0" fill="#fff"/>
  <path id="Tracé_2" data-name="Tracé 2" d="M137.687,101.852a2.441,2.441,0,0,0-2.442,2.442v11.238a2.442,2.442,0,1,0,4.883,0V104.294A2.441,2.441,0,0,0,137.687,101.852Zm0,0" transform="translate(-113.747 -85.662)" fill="#fff"/>
</svg>
