<svg xmlns="http://www.w3.org/2000/svg" viewBox="0 0 62.4 58.3"><defs><style>.cls-1{isolation:isolate;}.cls-2{fill:#750d37;}</style></defs><g id="Calque_2" data-name="Calque 2"><g id="Calque_1-2" data-name="Calque 1"><g id="_" data-name=" " class="cls-1"><g class="cls-1"><path class="cls-2" d="M6.8,58.3Q0,47.2,0,35.9A39,39,0,0,1,5.05,16.75,56.25,56.25,0,0,1,19.7,0l7.7,4.7a3.4,3.4,0,0,1,1.4,1.45,3.84,3.84,0,0,1,.4,1.65,3.7,3.7,0,0,1-.4,1.7,7.66,7.66,0,0,1-.9,1.4c-.87,1-1.78,2.17-2.75,3.5a32.07,32.07,0,0,0-2.65,4.35,28.29,28.29,0,0,0-2,5.15,21.91,21.91,0,0,0-.8,6,26.57,26.57,0,0,0,1.1,7.25,32.26,32.26,0,0,0,3.7,8.05,5.14,5.14,0,0,1,.9,2.8q0,3.2-3.6,4.5Zm33.2,0q-6.8-11.1-6.8-22.4a39,39,0,0,1,5-19.15A56.25,56.25,0,0,1,52.9,0l7.7,4.7A3.4,3.4,0,0,1,62,6.15a3.84,3.84,0,0,1,.4,1.65A3.7,3.7,0,0,1,62,9.5a7.66,7.66,0,0,1-.9,1.4c-.87,1-1.78,2.17-2.75,3.5a32.07,32.07,0,0,0-2.65,4.35,28.29,28.29,0,0,0-2,5.15,21.91,21.91,0,0,0-.8,6A26.57,26.57,0,0,0,54,37.15a32.26,32.26,0,0,0,3.7,8.05,5.14,5.14,0,0,1,.9,2.8q0,3.2-3.6,4.5Z"/></g></g></g></g></svg>