<?xml version="1.0" encoding="utf-8"?>
<!-- Generator: Adobe Illustrator 24.1.2, SVG Export Plug-In . SVG Version: 6.00 Build 0)  -->
<svg version="1.1" id="Calque_1" xmlns="http://www.w3.org/2000/svg" xmlns:xlink="http://www.w3.org/1999/xlink" x="0px" y="0px"
	 viewBox="0 0 48 40" style="enable-background:new 0 0 48 40;" xml:space="preserve">
<style type="text/css">
	.st0{fill:#750D37;}
</style>
<path id="right-arrow" class="st0" d="M29.4,0.6c-0.8-0.8-2.1-0.7-2.8,0.1s-0.7,2.1,0.1,2.8L42,18H2c-1.1,0-2,0.9-2,2
	c0,1.1,0.9,2,2,2h39.9L26.6,36.6c-0.8,0.8-0.8,2-0.1,2.8c0.8,0.8,2,0.8,2.8,0.1l17.4-16.6c1.6-1.6,1.6-4.1,0-5.7c0,0,0,0,0,0
	L29.4,0.6z"/>
</svg>
