<svg xmlns="http://www.w3.org/2000/svg" width="47.206" height="38.354" viewBox="0 0 47.206 38.354">
  <g id="twitter" transform="translate(0 -48)">
    <g id="Groupe_3" data-name="Groupe 3" transform="translate(0 48)">
      <path id="Tracé_7" data-name="Tracé 7" d="M47.206,52.541a20.177,20.177,0,0,1-5.576,1.528,9.623,9.623,0,0,0,4.257-5.349,19.34,19.34,0,0,1-6.137,2.343A9.677,9.677,0,0,0,23.01,57.68a9.965,9.965,0,0,0,.224,2.207A27.392,27.392,0,0,1,3.287,49.764,9.68,9.68,0,0,0,6.261,62.7a9.557,9.557,0,0,1-4.372-1.192v.106a9.722,9.722,0,0,0,7.754,9.509A9.659,9.659,0,0,1,7.1,71.44a8.557,8.557,0,0,1-1.832-.165,9.77,9.77,0,0,0,9.043,6.742,19.445,19.445,0,0,1-12,4.128A18.125,18.125,0,0,1,0,82.012a27.245,27.245,0,0,0,14.846,4.343c17.808,0,27.544-14.752,27.544-27.539,0-.428-.015-.841-.035-1.251A19.306,19.306,0,0,0,47.206,52.541Z" transform="translate(0 -48)" fill="#3d041e"/>
    </g>
  </g>
</svg>
